<svg xmlns="http://www.w3.org/2000/svg" viewBox="0 0 211.26 186.03"><defs><style>.cls-1,.cls-2,.cls-3,.cls-4,.cls-5,.cls-6,.cls-7,.cls-9{fill:none;stroke-miterlimit:10;}.cls-1{stroke:#50539a;}.cls-1,.cls-2,.cls-3,.cls-4,.cls-5,.cls-6,.cls-7{stroke-width:3px;}.cls-2{stroke:#638cc3;}.cls-3{stroke:#5dbc63;}.cls-4{stroke:#f2a1b5;}.cls-5{stroke:#cd4a3e;}.cls-6{stroke:#aca7af;}.cls-7{stroke:#f7ec32;}.cls-8{fill:#231f20;}.cls-9{stroke:#231f20;}</style></defs><title>Asset 4</title><g id="Layer_2" data-name="Layer 2"><g id="Poster"><g id="Legend"><line class="cls-1" x1="12.39" y1="41.7" x2="65.8" y2="41.7"/><line class="cls-2" x1="12.39" y1="62.91" x2="65.8" y2="62.91"/><line class="cls-3" x1="12.39" y1="84.13" x2="65.8" y2="84.13"/><line class="cls-4" x1="12.39" y1="105.34" x2="65.8" y2="105.34"/><line class="cls-5" x1="12.39" y1="126.55" x2="65.8" y2="126.55"/><line class="cls-6" x1="12.39" y1="147.76" x2="65.8" y2="147.76"/><line class="cls-7" x1="12.39" y1="168.98" x2="65.8" y2="168.98"/><path class="cls-8" d="M82.53,45.55l-1.07-2.72H78L77,45.55H76L79.35,37h.84l3.37,8.6Zm-1.38-3.62-1-2.65A12.44,12.44,0,0,1,79.76,38a11.84,11.84,0,0,1-.37,1.24l-1,2.65Z"/><path class="cls-8" d="M87.13,45.67A2.75,2.75,0,0,1,85,44.81a3.52,3.52,0,0,1-.76-2.43A3.69,3.69,0,0,1,85,39.89,2.83,2.83,0,0,1,87.2,39a4.88,4.88,0,0,1,.92.1,3.27,3.27,0,0,1,.73.24l-.3.82a6.41,6.41,0,0,0-.7-.21,3,3,0,0,0-.68-.08q-2,0-2,2.49a3,3,0,0,0,.47,1.82,1.67,1.67,0,0,0,1.42.63,4.3,4.3,0,0,0,1.64-.34v.86A3.54,3.54,0,0,1,87.13,45.67Z"/><path class="cls-8" d="M92.45,45.67a2.34,2.34,0,0,1-1.94-.87,3.79,3.79,0,0,1-.7-2.44,3.91,3.91,0,0,1,.7-2.46,2.38,2.38,0,0,1,2-.89,2.35,2.35,0,0,1,2,1h0l.14-.88h.77v9.31h-1V45.69a7.15,7.15,0,0,1,.06-1h-.07A2.31,2.31,0,0,1,92.45,45.67Zm.14-.81A1.76,1.76,0,0,0,94,44.33a2.77,2.77,0,0,0,.48-1.75v-.22A3.16,3.16,0,0,0,94,40.42a1.73,1.73,0,0,0-1.45-.59,1.5,1.5,0,0,0-1.31.66,3.35,3.35,0,0,0-.45,1.88,3.18,3.18,0,0,0,.45,1.85A1.53,1.53,0,0,0,92.59,44.86Z"/><path class="cls-8" d="M98.37,39.13V43.3a1.67,1.67,0,0,0,.36,1.17,1.45,1.45,0,0,0,1.12.39,1.84,1.84,0,0,0,1.47-.55,2.79,2.79,0,0,0,.47-1.8V39.13h1v6.42H102l-.15-.86h0a1.91,1.91,0,0,1-.83.73,2.73,2.73,0,0,1-1.21.25A2.45,2.45,0,0,1,98,45.11a2.35,2.35,0,0,1-.58-1.78v-4.2Z"/><path class="cls-8" d="M108.66,45.55l-.2-.91h0a2.81,2.81,0,0,1-1,.82,3,3,0,0,1-1.19.21,2.14,2.14,0,0,1-1.5-.49,1.81,1.81,0,0,1-.54-1.4c0-1.3,1-2,3.11-2l1.09,0v-.39a1.61,1.61,0,0,0-.33-1.12,1.32,1.32,0,0,0-1-.36,4.18,4.18,0,0,0-1.81.49l-.3-.74a4.18,4.18,0,0,1,1-.41,4.32,4.32,0,0,1,1.13-.14,2.43,2.43,0,0,1,1.7.51,2.11,2.11,0,0,1,.56,1.63v4.38Zm-2.2-.68a2,2,0,0,0,1.43-.5A1.86,1.86,0,0,0,108.4,43V42.4l-1,0a3.36,3.36,0,0,0-1.67.36,1.08,1.08,0,0,0-.51,1,1,1,0,0,0,.32.8A1.28,1.28,0,0,0,106.46,44.87Z"/><path class="cls-8" d="M111.23,37.39a.66.66,0,0,1,.17-.49.58.58,0,0,1,.41-.15.59.59,0,0,1,.4.15.79.79,0,0,1,0,1,.55.55,0,0,1-.4.16.54.54,0,0,1-.41-.16A.66.66,0,0,1,111.23,37.39Zm1.06,8.16h-1V39.13h1Z"/><path class="cls-8" d="M118.65,45.55V41.4a1.7,1.7,0,0,0-.35-1.17,1.47,1.47,0,0,0-1.12-.39,1.83,1.83,0,0,0-1.48.55,2.74,2.74,0,0,0-.47,1.79v3.37h-1V39.13h.79l.16.88h.05a1.93,1.93,0,0,1,.83-.74,2.78,2.78,0,0,1,1.2-.26,2.45,2.45,0,0,1,1.75.56,2.4,2.4,0,0,1,.59,1.79v4.19Z"/><path class="cls-8" d="M123.68,44.87a2.63,2.63,0,0,0,.49,0,3.43,3.43,0,0,0,.38-.08v.74a1.34,1.34,0,0,1-.46.13,4,4,0,0,1-.55.05c-1.25,0-1.87-.65-1.87-2V39.89h-.92v-.47l.92-.41.41-1.37h.56v1.49h1.87v.76h-1.87v3.78a1.34,1.34,0,0,0,.28.89A1,1,0,0,0,123.68,44.87Z"/><path class="cls-8" d="M130,45.55l-.2-.91h0a2.81,2.81,0,0,1-1,.82,3,3,0,0,1-1.19.21,2.14,2.14,0,0,1-1.5-.49,1.81,1.81,0,0,1-.54-1.4c0-1.3,1-2,3.11-2l1.09,0v-.39a1.61,1.61,0,0,0-.33-1.12,1.32,1.32,0,0,0-1-.36,4.18,4.18,0,0,0-1.81.49l-.3-.74a4.18,4.18,0,0,1,1-.41,4.32,4.32,0,0,1,1.13-.14,2.43,2.43,0,0,1,1.7.51,2.11,2.11,0,0,1,.56,1.63v4.38Zm-2.2-.68a2,2,0,0,0,1.43-.5,1.86,1.86,0,0,0,.51-1.39V42.4l-1,0a3.36,3.36,0,0,0-1.67.36,1.08,1.08,0,0,0-.51,1,1,1,0,0,0,.32.8A1.28,1.28,0,0,0,127.8,44.87Z"/><path class="cls-8" d="M137.05,45.55V41.4a1.65,1.65,0,0,0-.35-1.17,1.45,1.45,0,0,0-1.12-.39,1.83,1.83,0,0,0-1.48.55,2.74,2.74,0,0,0-.47,1.79v3.37h-1V39.13h.79l.16.88h0a2.06,2.06,0,0,1,.83-.74A2.79,2.79,0,0,1,135.7,39a2.44,2.44,0,0,1,1.74.56,2.4,2.4,0,0,1,.59,1.79v4.19Z"/><path class="cls-8" d="M142.56,45.67a2.75,2.75,0,0,1-2.16-.86,3.52,3.52,0,0,1-.76-2.43,3.69,3.69,0,0,1,.77-2.49,2.83,2.83,0,0,1,2.22-.88,4.88,4.88,0,0,1,.92.1,3.27,3.27,0,0,1,.73.24l-.3.82a6.41,6.41,0,0,0-.7-.21,3,3,0,0,0-.68-.08c-1.3,0-2,.83-2,2.49a3,3,0,0,0,.48,1.82,1.67,1.67,0,0,0,1.42.63,4.3,4.3,0,0,0,1.64-.34v.86A3.54,3.54,0,0,1,142.56,45.67Z"/><path class="cls-8" d="M148.28,45.67A3,3,0,0,1,146,44.8a3.33,3.33,0,0,1-.82-2.4,3.72,3.72,0,0,1,.76-2.47A2.53,2.53,0,0,1,148,39a2.4,2.4,0,0,1,1.91.8,3,3,0,0,1,.71,2.09v.62h-4.43a2.54,2.54,0,0,0,.57,1.71,2,2,0,0,0,1.53.59,5.13,5.13,0,0,0,2.05-.43v.86a4.77,4.77,0,0,1-1,.32A5.13,5.13,0,0,1,148.28,45.67ZM148,39.83a1.61,1.61,0,0,0-1.23.5,2.28,2.28,0,0,0-.54,1.4h3.35a2.08,2.08,0,0,0-.41-1.41A1.42,1.42,0,0,0,148,39.83Z"/><path class="cls-8" d="M78.14,66.77h-1V58.2h4.78v.88H78.14v3.14h3.55v.88H78.14Z"/><path class="cls-8" d="M86.89,66.77l-.19-.92h0a2.7,2.7,0,0,1-1,.82,3,3,0,0,1-1.19.21,2.14,2.14,0,0,1-1.5-.49,1.79,1.79,0,0,1-.54-1.4c0-1.3,1-2,3.11-2l1.09,0v-.4a1.66,1.66,0,0,0-.32-1.12,1.35,1.35,0,0,0-1-.36,4.22,4.22,0,0,0-1.82.49l-.3-.74a4.8,4.8,0,0,1,1-.41,4.94,4.94,0,0,1,1.14-.14,2.45,2.45,0,0,1,1.7.51,2.11,2.11,0,0,1,.55,1.63v4.39Zm-2.2-.69a2,2,0,0,0,1.43-.5,1.83,1.83,0,0,0,.52-1.39v-.58l-1,0A3.65,3.65,0,0,0,84,64a1.08,1.08,0,0,0-.51,1,1,1,0,0,0,.32.8A1.28,1.28,0,0,0,84.69,66.08Z"/><path class="cls-8" d="M97.74,66.77V62.59a1.72,1.72,0,0,0-.33-1.15,1.26,1.26,0,0,0-1-.39,1.67,1.67,0,0,0-1.34.52,2.5,2.5,0,0,0-.43,1.61v3.59h-1V62.59a1.72,1.72,0,0,0-.32-1.15,1.27,1.27,0,0,0-1-.39A1.59,1.59,0,0,0,91,61.6a3,3,0,0,0-.42,1.8v3.37h-1V60.34h.8l.15.88h0a1.9,1.9,0,0,1,.78-.73,2.31,2.31,0,0,1,1.12-.26,1.91,1.91,0,0,1,2,1.09h0a2,2,0,0,1,.83-.8,2.5,2.5,0,0,1,1.24-.29,2.14,2.14,0,0,1,1.63.56,2.5,2.5,0,0,1,.54,1.79v4.19Z"/><path class="cls-8" d="M100.56,58.6a.66.66,0,0,1,.16-.49.59.59,0,0,1,.41-.15.57.57,0,0,1,.41.16.62.62,0,0,1,.17.48.66.66,0,0,1-.17.49.57.57,0,0,1-.41.16.56.56,0,0,1-.41-.16A.66.66,0,0,1,100.56,58.6Zm1,8.17h-1V60.34h1Z"/><path class="cls-8" d="M104.56,66.77h-1V57.65h1Z"/><path class="cls-8" d="M105.76,60.34h1L108.21,64a12.32,12.32,0,0,1,.57,1.81h0c0-.2.16-.54.32-1s.69-2,1.59-4.45h1L109,67.66a3.63,3.63,0,0,1-1,1.53,2,2,0,0,1-1.35.46,4.4,4.4,0,0,1-.88-.1v-.78a3.26,3.26,0,0,0,.72.07A1.48,1.48,0,0,0,108,67.71l.36-.91Z"/><path class="cls-8" d="M78.14,88h-1V79.41h4.78v.89H78.14v3.13h3.55v.89H78.14Z"/><path class="cls-8" d="M86.08,81.44a3.61,3.61,0,0,1,.77.07l-.14.9a3.2,3.2,0,0,0-.7-.09,1.72,1.72,0,0,0-1.33.64,2.29,2.29,0,0,0-.56,1.57V88h-1V81.56H84l.12,1.19h0a2.93,2.93,0,0,1,.86-1A1.94,1.94,0,0,1,86.08,81.44Z"/><path class="cls-8" d="M88.05,79.82a.63.63,0,0,1,.16-.49.56.56,0,0,1,.41-.16.62.62,0,0,1,.41.16.79.79,0,0,1,0,1,.62.62,0,0,1-.41.16.6.6,0,0,1-.41-.16A.66.66,0,0,1,88.05,79.82Zm1,8.16h-1V81.56h1Z"/><path class="cls-8" d="M93.8,88.1a3,3,0,0,1-2.25-.87,3.36,3.36,0,0,1-.83-2.41,3.74,3.74,0,0,1,.77-2.47,2.53,2.53,0,0,1,2.05-.91,2.41,2.41,0,0,1,1.91.79,3.05,3.05,0,0,1,.71,2.1v.61H91.73a2.55,2.55,0,0,0,.57,1.72,2,2,0,0,0,1.53.59,5.15,5.15,0,0,0,2-.44v.87a4.77,4.77,0,0,1-1,.32A5.85,5.85,0,0,1,93.8,88.1Zm-.27-5.85a1.57,1.57,0,0,0-1.23.51,2.25,2.25,0,0,0-.54,1.39h3.35a2.12,2.12,0,0,0-.41-1.41A1.45,1.45,0,0,0,93.53,82.25Z"/><path class="cls-8" d="M102.17,88V83.82a1.67,1.67,0,0,0-.36-1.17,1.49,1.49,0,0,0-1.12-.38,1.84,1.84,0,0,0-1.47.54,2.7,2.7,0,0,0-.47,1.8V88h-1V81.56h.79l.15.88h0a2,2,0,0,1,.84-.74,2.78,2.78,0,0,1,1.2-.26,2.47,2.47,0,0,1,1.75.56,2.38,2.38,0,0,1,.58,1.79V88Z"/><path class="cls-8" d="M109.5,87.12h0a2.31,2.31,0,0,1-2,1,2.38,2.38,0,0,1-2-.87,3.75,3.75,0,0,1-.7-2.44,3.84,3.84,0,0,1,.7-2.47,2.36,2.36,0,0,1,2-.88,2.33,2.33,0,0,1,2,1h.08l0-.46,0-.45V78.86h1V88h-.79Zm-2,.16a1.78,1.78,0,0,0,1.45-.54,2.72,2.72,0,0,0,.45-1.75v-.2a3.25,3.25,0,0,0-.46-2,1.71,1.71,0,0,0-1.45-.59,1.5,1.5,0,0,0-1.31.67,3.33,3.33,0,0,0-.45,1.88,3.13,3.13,0,0,0,.45,1.85A1.52,1.52,0,0,0,107.55,87.28Z"/><path class="cls-8" d="M116.57,86.23a1.62,1.62,0,0,1-.67,1.38,3.18,3.18,0,0,1-1.88.49,4.07,4.07,0,0,1-2-.41v-.9a4.69,4.69,0,0,0,1,.37,4.21,4.21,0,0,0,1,.13,2.37,2.37,0,0,0,1.17-.24.83.83,0,0,0,.08-1.38A4.84,4.84,0,0,0,114,85a7.14,7.14,0,0,1-1.27-.59,1.66,1.66,0,0,1-.56-.56,1.41,1.41,0,0,1-.19-.76,1.47,1.47,0,0,1,.64-1.24,3,3,0,0,1,1.75-.45,5.16,5.16,0,0,1,2,.42l-.34.79a4.8,4.8,0,0,0-1.76-.4,2,2,0,0,0-1,.22.68.68,0,0,0-.35.6.72.72,0,0,0,.13.44,1.32,1.32,0,0,0,.43.34,9.41,9.41,0,0,0,1.12.48,4.18,4.18,0,0,1,1.54.84A1.46,1.46,0,0,1,116.57,86.23Z"/><path class="cls-8" d="M80.81,101.39a2.79,2.79,0,0,0-2.23.94,3.79,3.79,0,0,0-.82,2.58,3.87,3.87,0,0,0,.79,2.6,2.8,2.8,0,0,0,2.25.91,7.84,7.84,0,0,0,2-.32V109a6.09,6.09,0,0,1-2.2.34,3.74,3.74,0,0,1-2.92-1.15,4.75,4.75,0,0,1-1-3.26,5.19,5.19,0,0,1,.49-2.33A3.59,3.59,0,0,1,78.62,101a4.32,4.32,0,0,1,2.2-.54,5.32,5.32,0,0,1,2.36.49l-.43.86A4.41,4.41,0,0,0,80.81,101.39Z"/><path class="cls-8" d="M87.34,102.65a3.55,3.55,0,0,1,.77.07l-.13.9a3.21,3.21,0,0,0-.71-.08,1.71,1.71,0,0,0-1.33.63,2.3,2.3,0,0,0-.55,1.57v3.45h-1v-6.42h.81l.11,1.19h0a2.72,2.72,0,0,1,.86-1A1.88,1.88,0,0,1,87.34,102.65Z"/><path class="cls-8" d="M90.34,102.77v4.16a1.68,1.68,0,0,0,.36,1.18,1.47,1.47,0,0,0,1.12.38,1.81,1.81,0,0,0,1.47-.55,2.77,2.77,0,0,0,.47-1.8v-3.37h1v6.42h-.8l-.15-.86h0a1.91,1.91,0,0,1-.83.73,2.87,2.87,0,0,1-1.21.25,2.45,2.45,0,0,1-1.75-.56,2.36,2.36,0,0,1-.59-1.78v-4.2Z"/><path class="cls-8" d="M100.88,107.44a1.61,1.61,0,0,1-.67,1.38,3.11,3.11,0,0,1-1.88.49,4.07,4.07,0,0,1-2-.41V108a4.69,4.69,0,0,0,1,.37,4.21,4.21,0,0,0,1,.13,2.37,2.37,0,0,0,1.17-.24.83.83,0,0,0,.08-1.38,4.84,4.84,0,0,0-1.27-.63,7.27,7.27,0,0,1-1.27-.58,1.78,1.78,0,0,1-.56-.57,1.41,1.41,0,0,1-.19-.76,1.44,1.44,0,0,1,.64-1.23,2.93,2.93,0,0,1,1.75-.46,5.16,5.16,0,0,1,2,.42l-.35.79a4.68,4.68,0,0,0-1.75-.39,2,2,0,0,0-1,.21.69.69,0,0,0-.35.6.72.72,0,0,0,.13.44,1.25,1.25,0,0,0,.42.34,10.68,10.68,0,0,0,1.13.48,4.18,4.18,0,0,1,1.54.84A1.46,1.46,0,0,1,100.88,107.44Z"/><path class="cls-8" d="M106.77,109.19V105a1.68,1.68,0,0,0-.36-1.18,1.49,1.49,0,0,0-1.12-.38,1.83,1.83,0,0,0-1.48.55,2.8,2.8,0,0,0-.46,1.8v3.36h-1v-9.12h1v2.76a6.25,6.25,0,0,1,0,.83h.06a2,2,0,0,1,.82-.73,2.6,2.6,0,0,1,1.21-.27,2.48,2.48,0,0,1,1.76.56,2.39,2.39,0,0,1,.59,1.78v4.19Z"/><path class="cls-8" d="M82,128.13a2.11,2.11,0,0,1-.82,1.76,3.58,3.58,0,0,1-2.23.63,5.55,5.55,0,0,1-2.34-.39v-1a6.33,6.33,0,0,0,1.14.35,5.85,5.85,0,0,0,1.23.13,2.47,2.47,0,0,0,1.5-.38,1.23,1.23,0,0,0,.51-1.05,1.34,1.34,0,0,0-.18-.73,1.66,1.66,0,0,0-.6-.52,8,8,0,0,0-1.27-.55,4,4,0,0,1-1.71-1,2.24,2.24,0,0,1-.51-1.53,1.89,1.89,0,0,1,.74-1.58,3.1,3.1,0,0,1,2-.58,5.87,5.87,0,0,1,2.35.46l-.31.87a5.27,5.27,0,0,0-2.06-.44,2,2,0,0,0-1.24.34,1.1,1.1,0,0,0-.45.94,1.43,1.43,0,0,0,.17.73,1.54,1.54,0,0,0,.55.52,6.83,6.83,0,0,0,1.19.52,4.71,4.71,0,0,1,1.86,1A2,2,0,0,1,82,128.13Z"/><path class="cls-8" d="M83.41,122.24a.66.66,0,0,1,.17-.49.58.58,0,0,1,.41-.15.55.55,0,0,1,.4.16.59.59,0,0,1,.17.48.62.62,0,0,1-.17.49.55.55,0,0,1-.4.16.54.54,0,0,1-.41-.16A.66.66,0,0,1,83.41,122.24Zm1.06,8.16h-1V124h1Z"/><path class="cls-8" d="M91.7,124v.62l-1.19.14a1.88,1.88,0,0,1,.29.53,2,2,0,0,1,.13.75,1.91,1.91,0,0,1-.64,1.51,2.63,2.63,0,0,1-1.77.56A3.1,3.1,0,0,1,88,128a1,1,0,0,0-.62.83.41.41,0,0,0,.21.39,1.68,1.68,0,0,0,.75.13h1.14a2.58,2.58,0,0,1,1.6.43,1.55,1.55,0,0,1,.56,1.28,1.83,1.83,0,0,1-.86,1.63,4.59,4.59,0,0,1-2.49.56,3.47,3.47,0,0,1-2-.47,1.53,1.53,0,0,1-.68-1.33,1.49,1.49,0,0,1,.38-1,1.93,1.93,0,0,1,1-.58,1,1,0,0,1-.41-.34.94.94,0,0,1-.17-.55,1,1,0,0,1,.19-.61,1.8,1.8,0,0,1,.59-.51,1.76,1.76,0,0,1-.81-.7,2.28,2.28,0,0,1,.32-2.75,2.58,2.58,0,0,1,1.79-.57,3.2,3.2,0,0,1,.91.11Zm-5.12,7.5a.86.86,0,0,0,.44.79,2.41,2.41,0,0,0,1.26.27,3.56,3.56,0,0,0,1.81-.36,1.14,1.14,0,0,0,.59-1,.8.8,0,0,0-.32-.72,2.6,2.6,0,0,0-1.22-.2H88a1.53,1.53,0,0,0-1,.31A1.14,1.14,0,0,0,86.58,131.48Zm.53-5.44a1.29,1.29,0,0,0,.38,1,1.5,1.5,0,0,0,1.06.34A1.24,1.24,0,0,0,90,126a1.28,1.28,0,0,0-1.44-1.45,1.47,1.47,0,0,0-1.06.37A1.53,1.53,0,0,0,87.11,126Z"/><path class="cls-8" d="M97.43,130.4v-4.15a1.67,1.67,0,0,0-.36-1.17,1.45,1.45,0,0,0-1.12-.39,1.81,1.81,0,0,0-1.47.55A2.7,2.7,0,0,0,94,127v3.36H93V124h.79l.15.88h0a2,2,0,0,1,.84-.73,2.64,2.64,0,0,1,1.2-.26,2.42,2.42,0,0,1,1.75.56,2.38,2.38,0,0,1,.58,1.79v4.18Z"/><path class="cls-8" d="M100.24,122.24a.66.66,0,0,1,.17-.49.58.58,0,0,1,.41-.15.55.55,0,0,1,.4.16.59.59,0,0,1,.17.48.62.62,0,0,1-.17.49.55.55,0,0,1-.4.16.54.54,0,0,1-.41-.16A.66.66,0,0,1,100.24,122.24Zm1.06,8.16h-1V124h1Z"/><path class="cls-8" d="M106.36,124.74h-1.64v5.66h-1v-5.66H102.6v-.44l1.15-.35v-.36q0-2.37,2.07-2.37a4.09,4.09,0,0,1,1.19.21l-.25.78a3.19,3.19,0,0,0-1-.18.92.92,0,0,0-.81.36,2,2,0,0,0-.27,1.18V124h1.64Zm1.09-2.5a.66.66,0,0,1,.16-.49.59.59,0,0,1,.41-.15.57.57,0,0,1,.41.16.62.62,0,0,1,.17.48.66.66,0,0,1-.17.49.57.57,0,0,1-.41.16.56.56,0,0,1-.41-.16A.66.66,0,0,1,107.45,122.24Zm1,8.16h-1V124h1Z"/><path class="cls-8" d="M113.1,130.52a2.72,2.72,0,0,1-2.16-.86,3.52,3.52,0,0,1-.76-2.43,3.69,3.69,0,0,1,.77-2.49,2.83,2.83,0,0,1,2.22-.87,4.18,4.18,0,0,1,.92.1,2.86,2.86,0,0,1,.73.23l-.3.83a4.78,4.78,0,0,0-.7-.22,3.65,3.65,0,0,0-.68-.08c-1.3,0-2,.83-2,2.49a3,3,0,0,0,.48,1.82,1.67,1.67,0,0,0,1.42.63,4.3,4.3,0,0,0,1.64-.34v.86A3.54,3.54,0,0,1,113.1,130.52Z"/><path class="cls-8" d="M120.32,130.4l-.19-.91h0a2.7,2.7,0,0,1-1,.82,3,3,0,0,1-1.19.21,2.15,2.15,0,0,1-1.5-.49,1.81,1.81,0,0,1-.54-1.4c0-1.3,1-2,3.11-2l1.09,0v-.4a1.66,1.66,0,0,0-.32-1.12,1.35,1.35,0,0,0-1-.36,4.22,4.22,0,0,0-1.82.49l-.3-.74a5,5,0,0,1,1-.41,4.94,4.94,0,0,1,1.14-.14,2.45,2.45,0,0,1,1.7.51A2.11,2.11,0,0,1,121,126v4.38Zm-2.2-.68a2,2,0,0,0,1.43-.5,1.83,1.83,0,0,0,.52-1.39v-.58l-1,0a3.52,3.52,0,0,0-1.68.36,1.08,1.08,0,0,0-.51,1,1,1,0,0,0,.32.8A1.28,1.28,0,0,0,118.12,129.72Z"/><path class="cls-8" d="M127.38,130.4v-4.15a1.67,1.67,0,0,0-.36-1.17,1.45,1.45,0,0,0-1.12-.39,1.81,1.81,0,0,0-1.47.55A2.7,2.7,0,0,0,124,127v3.36h-1V124h.79l.15.88h0a2,2,0,0,1,.84-.73,2.64,2.64,0,0,1,1.2-.26,2.42,2.42,0,0,1,1.75.56,2.38,2.38,0,0,1,.58,1.79v4.18Z"/><path class="cls-8" d="M132.4,129.72a2.74,2.74,0,0,0,.5,0,2,2,0,0,0,.38-.08v.75a1.66,1.66,0,0,1-.46.12,2.9,2.9,0,0,1-.56.05c-1.24,0-1.86-.65-1.86-2v-3.82h-.92v-.47l.92-.4.41-1.38h.56V124h1.86v.76h-1.86v3.78a1.28,1.28,0,0,0,.28.89A.93.93,0,0,0,132.4,129.72Z"/><path class="cls-8" d="M143.22,127.19a3.54,3.54,0,0,1-.79,2.45,2.75,2.75,0,0,1-2.18.88,2.86,2.86,0,0,1-1.53-.4,2.65,2.65,0,0,1-1-1.16,4.11,4.11,0,0,1-.37-1.77,3.57,3.57,0,0,1,.79-2.45,2.78,2.78,0,0,1,2.18-.87,2.7,2.7,0,0,1,2.14.89A3.54,3.54,0,0,1,143.22,127.19Zm-4.89,0a3.09,3.09,0,0,0,.49,1.87,2,2,0,0,0,2.9,0,3.05,3.05,0,0,0,.5-1.88,3,3,0,0,0-.5-1.86,1.73,1.73,0,0,0-1.46-.64,1.7,1.7,0,0,0-1.44.63A3,3,0,0,0,138.33,127.19Z"/><path class="cls-8" d="M146.91,129.72a2.63,2.63,0,0,0,.49,0,2.39,2.39,0,0,0,.39-.08v.75a1.86,1.86,0,0,1-.47.12,2.87,2.87,0,0,1-.55.05c-1.25,0-1.87-.65-1.87-2v-3.82H144v-.47l.92-.4.41-1.38h.57V124h1.86v.76h-1.86v3.78a1.33,1.33,0,0,0,.27.89A1,1,0,0,0,146.91,129.72Z"/><path class="cls-8" d="M153.5,130.4v-4.15a1.67,1.67,0,0,0-.35-1.17,1.45,1.45,0,0,0-1.12-.39,1.85,1.85,0,0,0-1.48.55,2.81,2.81,0,0,0-.47,1.81v3.35h-1v-9.11h1v2.76a6.3,6.3,0,0,1,0,.82h.05a2.08,2.08,0,0,1,.82-.73,2.76,2.76,0,0,1,1.21-.26,2.44,2.44,0,0,1,1.77.56,2.36,2.36,0,0,1,.59,1.78v4.18Z"/><path class="cls-8" d="M159.16,130.52a3,3,0,0,1-2.25-.87,3.33,3.33,0,0,1-.82-2.4,3.72,3.72,0,0,1,.76-2.47,2.54,2.54,0,0,1,2.05-.91,2.4,2.4,0,0,1,1.91.79,3,3,0,0,1,.71,2.09v.62h-4.43a2.52,2.52,0,0,0,.58,1.72,2,2,0,0,0,1.52.58,5.13,5.13,0,0,0,2.05-.43v.87a6.44,6.44,0,0,1-1,.32A5.93,5.93,0,0,1,159.16,130.52Zm-.27-5.84a1.61,1.61,0,0,0-1.23.5,2.28,2.28,0,0,0-.54,1.4h3.35a2.12,2.12,0,0,0-.41-1.41A1.42,1.42,0,0,0,158.89,124.68Z"/><path class="cls-8" d="M166.07,123.87a3.51,3.51,0,0,1,.76.07l-.13.9a3.27,3.27,0,0,0-.7-.09,1.73,1.73,0,0,0-1.34.63,2.32,2.32,0,0,0-.55,1.58v3.44h-1V124h.8l.11,1.19h0a2.7,2.7,0,0,1,.86-1A1.91,1.91,0,0,1,166.07,123.87Z"/><path class="cls-8" d="M81.92,151.62H77.14v-8.57h4.78v.89H78.14v2.75h3.55v.88H78.14v3.16h3.78Z"/><path class="cls-8" d="M87.9,151.62v-4.16a1.72,1.72,0,0,0-.35-1.17,1.47,1.47,0,0,0-1.12-.39,1.85,1.85,0,0,0-1.48.55,2.76,2.76,0,0,0-.47,1.8v3.37h-1v-6.43h.79l.16.88h0a2,2,0,0,1,.84-.73,2.64,2.64,0,0,1,1.2-.26,2.41,2.41,0,0,1,1.75.56,2.38,2.38,0,0,1,.59,1.79v4.19Z"/><path class="cls-8" d="M93.55,151.73a3,3,0,0,1-2.24-.86,3.36,3.36,0,0,1-.83-2.41,3.73,3.73,0,0,1,.77-2.47,2.53,2.53,0,0,1,2-.91,2.41,2.41,0,0,1,1.91.79,3.05,3.05,0,0,1,.71,2.1v.61H91.49a2.55,2.55,0,0,0,.57,1.72,2,2,0,0,0,1.53.58,5.13,5.13,0,0,0,2-.43v.87a5.48,5.48,0,0,1-1,.32A6,6,0,0,1,93.55,151.73Zm-.26-5.84a1.57,1.57,0,0,0-1.23.51,2.25,2.25,0,0,0-.54,1.39h3.35a2.12,2.12,0,0,0-.41-1.41A1.45,1.45,0,0,0,93.29,145.89Z"/><path class="cls-8" d="M105.72,151.62v-4.18a1.72,1.72,0,0,0-.33-1.15,1.26,1.26,0,0,0-1-.39,1.65,1.65,0,0,0-1.34.53,2.45,2.45,0,0,0-.43,1.6v3.59h-1v-4.18a1.72,1.72,0,0,0-.33-1.15,1.27,1.27,0,0,0-1-.39,1.61,1.61,0,0,0-1.34.55,3,3,0,0,0-.42,1.8v3.37h-1v-6.43h.79l.15.88h0a2,2,0,0,1,.78-.73,2.43,2.43,0,0,1,1.12-.26,1.91,1.91,0,0,1,2,1.09h0a2,2,0,0,1,.83-.8,2.61,2.61,0,0,1,1.24-.29,2.14,2.14,0,0,1,1.63.56,2.5,2.5,0,0,1,.54,1.79v4.19Z"/><path class="cls-8" d="M107.61,145.19h1l1.41,3.67a12.71,12.71,0,0,1,.57,1.81h.05c0-.2.16-.54.32-1s.69-2,1.59-4.46h1l-2.76,7.32a3.74,3.74,0,0,1-1,1.54,2.07,2.07,0,0,1-1.35.45,3.71,3.71,0,0,1-.88-.1v-.78a3.26,3.26,0,0,0,.72.07,1.48,1.48,0,0,0,1.43-1.12l.36-.92Z"/><path class="cls-8" d="M82.53,172.83l-1.07-2.72H78L77,172.83H76l3.39-8.6h.84l3.37,8.6Zm-1.38-3.62-1-2.66a11.4,11.4,0,0,1-.39-1.23,11.71,11.71,0,0,1-.37,1.23l-1,2.66Z"/><path class="cls-8" d="M85.75,172.83h-1v-9.12h1Z"/><path class="cls-8" d="M88.7,172.83h-1v-9.12h1Z"/><path class="cls-8" d="M89.9,166.41h1l1.41,3.66a14.72,14.72,0,0,1,.57,1.81h0c0-.2.15-.54.32-1s.69-2,1.59-4.45h1l-2.76,7.31a3.58,3.58,0,0,1-1,1.54,2,2,0,0,1-1.34.45,3.71,3.71,0,0,1-.88-.1v-.78a3.14,3.14,0,0,0,.72.07,1.48,1.48,0,0,0,1.43-1.12l.36-.92Z"/><rect class="cls-9" x="0.5" y="0.5" width="210.26" height="185.03"/><path class="cls-8" d="M17.46,14.57V21a.41.41,0,0,0,.23.39,2.39,2.39,0,0,0,.77.17c.09,0,.13.07.13.2a1.91,1.91,0,0,1,0,.2l-.81,0-.86,0-.86,0-.82,0a.88.88,0,0,1,0-.2c0-.12,0-.18.12-.2a2.41,2.41,0,0,0,.78-.18.38.38,0,0,0,.25-.38V14.57H15.1a2.63,2.63,0,0,0-.61.07,1.2,1.2,0,0,0-.42.22,1.25,1.25,0,0,0-.31.37c-.09.15-.18.33-.28.53,0,0,0,.07-.08.08l-.1,0a.45.45,0,0,1-.23-.07c.08-.29.14-.55.18-.77s.08-.41.11-.56a2.08,2.08,0,0,1,.1-.34.18.18,0,0,1,.18-.12h.24l.33,0,.35,0h4.67l.36,0,.33,0h.24a.19.19,0,0,1,.18.12,2.86,2.86,0,0,1,.1.36c0,.15.07.34.1.56a5.5,5.5,0,0,0,.19.75l-.12,0a.21.21,0,0,1-.12,0l-.11,0a.11.11,0,0,1-.08-.08,5.18,5.18,0,0,0-.27-.53,1.42,1.42,0,0,0-.31-.37,1.05,1.05,0,0,0-.42-.22,2.47,2.47,0,0,0-.6-.07Z"/><path class="cls-8" d="M28.37,21a.34.34,0,0,0,.16.33,2.56,2.56,0,0,0,.62.19c.08,0,.12.07.12.16a1.8,1.8,0,0,1,0,.22l-.71,0-.73,0-.71,0-.73,0a.89.89,0,0,1,0-.22c0-.09,0-.15.12-.16a2.67,2.67,0,0,0,.62-.18.37.37,0,0,0,.16-.34v-2.9H23.47V21a.36.36,0,0,0,.16.33,2.53,2.53,0,0,0,.63.19.15.15,0,0,1,.13.16.89.89,0,0,1,0,.22l-.72,0-.73,0-.71,0-.74,0a.89.89,0,0,1,0-.22c0-.09,0-.15.12-.16a2.49,2.49,0,0,0,.63-.18.37.37,0,0,0,.17-.34v-6.1a.5.5,0,0,0,0-.19.27.27,0,0,0-.12-.14.55.55,0,0,0-.23-.1l-.39-.09c-.08,0-.12-.08-.12-.2a1.91,1.91,0,0,1,0-.2l.7,0,.72,0,.71,0,.73,0a1.91,1.91,0,0,1,0,.2c0,.12,0,.18-.12.2a1.29,1.29,0,0,0-.61.18.37.37,0,0,0-.16.34v2.69h3.77V14.94a.45.45,0,0,0-.14-.33,1.31,1.31,0,0,0-.61-.19c-.09,0-.14-.08-.14-.2a.88.88,0,0,1,0-.2l.7,0,.72,0,.7,0,.73,0a.88.88,0,0,1,0,.2c0,.12,0,.18-.12.2a1.38,1.38,0,0,0-.62.18.38.38,0,0,0-.15.34Z"/><path class="cls-8" d="M32.49,14.57v3.07h1.87a.37.37,0,0,0,.35-.23,3.29,3.29,0,0,0,.16-.57.19.19,0,0,1,.21-.16l.1,0,.1,0c0,.18,0,.38-.05.6s0,.42,0,.59,0,.3,0,.5,0,.41.05.66l-.18,0a.21.21,0,0,1-.23-.16,3.29,3.29,0,0,0-.16-.57.35.35,0,0,0-.35-.23H32.49V21q0,.26.33.33a4.37,4.37,0,0,0,1.06.09h.66a1.81,1.81,0,0,0,.61-.1,1.67,1.67,0,0,0,.46-.28A2,2,0,0,0,36,20.6c.1-.16.2-.34.3-.53s.08-.09.18-.09a.38.38,0,0,1,.13,0l.12.07a3,3,0,0,0-.18.55q-.09.32-.15.6c0,.2-.1.36-.15.5s-.12.2-.2.2h-.28l-.39,0-.42,0h-3l-.75,0-.75,0a.81.81,0,0,1,0-.19c0-.11,0-.18.12-.19a3.38,3.38,0,0,0,.66-.18.35.35,0,0,0,.19-.34V14.93a.33.33,0,0,0-.17-.33,2.79,2.79,0,0,0-.68-.18q-.12,0-.12-.21a.31.31,0,0,1,0-.1.29.29,0,0,1,0-.09l.86.05h3a8.38,8.38,0,0,0,.93,0l.53,0c.11,0,.18.06.21.2a2.62,2.62,0,0,1,.09.47c0,.18,0,.38.09.59a1.38,1.38,0,0,0,.18.53.44.44,0,0,1-.22.07.2.2,0,0,1-.2-.11,5,5,0,0,0-.28-.53,1.42,1.42,0,0,0-.31-.37,1.05,1.05,0,0,0-.42-.22,2.47,2.47,0,0,0-.6-.07Z"/><path class="cls-8" d="M42.27,21a.28.28,0,0,0,.18.28,1.13,1.13,0,0,0,.49.09h1.31a1.8,1.8,0,0,0,.6-.09,1.24,1.24,0,0,0,.43-.26,1.67,1.67,0,0,0,.32-.41,3.63,3.63,0,0,0,.25-.56A.13.13,0,0,1,46,20l.13,0,.14.07c-.06.24-.11.49-.17.76s-.09.57-.13.91a.2.2,0,0,1-.08.16.21.21,0,0,1-.14,0l-.51,0-.53,0h-3l-.7,0-.8,0a.81.81,0,0,1,0-.19c0-.11,0-.18.12-.19a2.32,2.32,0,0,0,.67-.19.34.34,0,0,0,.18-.32V14.93a.37.37,0,0,0-.16-.34,1.82,1.82,0,0,0-.65-.17.13.13,0,0,1-.09-.07.28.28,0,0,1,0-.13,1.91,1.91,0,0,1,0-.2l.81,0,.67,0,.86,0,.82,0a1.76,1.76,0,0,1,0,.19c0,.14,0,.21-.13.22a2.88,2.88,0,0,0-.76.17.42.42,0,0,0-.25.42Z"/><path class="cls-8" d="M49.08,14.57v3.07H51a.37.37,0,0,0,.35-.23,3.29,3.29,0,0,0,.16-.57.19.19,0,0,1,.21-.16l.1,0,.1,0c0,.18,0,.38,0,.6s0,.42,0,.59,0,.3,0,.5,0,.41,0,.66l-.18,0a.21.21,0,0,1-.23-.16,3.29,3.29,0,0,0-.16-.57.35.35,0,0,0-.35-.23H49.08V21q0,.26.33.33a4.37,4.37,0,0,0,1.06.09h.66a1.81,1.81,0,0,0,.61-.1A1.67,1.67,0,0,0,52.2,21a2,2,0,0,0,.35-.41c.1-.16.2-.34.3-.53S52.93,20,53,20a.38.38,0,0,1,.13,0l.12.07a3,3,0,0,0-.18.55q-.09.32-.15.6c-.05.2-.1.36-.15.5s-.12.2-.2.2h-.28l-.39,0-.42,0h-3l-.75,0-.75,0a.81.81,0,0,1,0-.19c0-.11,0-.18.12-.19a3.38,3.38,0,0,0,.66-.18A.35.35,0,0,0,48,21V14.93a.33.33,0,0,0-.17-.33,2.79,2.79,0,0,0-.68-.18q-.12,0-.12-.21a.31.31,0,0,1,0-.1A.29.29,0,0,1,47,14l.86.05h3a8.38,8.38,0,0,0,.93,0l.53,0c.11,0,.18.06.21.2a2.62,2.62,0,0,1,.09.47c0,.18.05.38.09.59a1.38,1.38,0,0,0,.18.53.44.44,0,0,1-.22.07.2.2,0,0,1-.2-.11,5,5,0,0,0-.28-.53,1.42,1.42,0,0,0-.31-.37,1.05,1.05,0,0,0-.42-.22,2.47,2.47,0,0,0-.6-.07Z"/><path class="cls-8" d="M60.61,21.82c-.36.06-.72.11-1.1.15a13,13,0,0,1-1.32.05,4.62,4.62,0,0,1-1.79-.31,3.59,3.59,0,0,1-1.27-.85,3.36,3.36,0,0,1-.75-1.28,5.11,5.11,0,0,1-.25-1.6,4.55,4.55,0,0,1,.25-1.44,3.92,3.92,0,0,1,.74-1.3,3.87,3.87,0,0,1,3-1.3h.69l.66.07.65.11c.22,0,.46.1.71.17q0,.42.09.87c.05.3.11.59.18.88a.2.2,0,0,1-.1,0l-.12,0a.23.23,0,0,1-.24-.16,1.9,1.9,0,0,0-.73-1.15,2.65,2.65,0,0,0-1.48-.35,3.27,3.27,0,0,0-1.34.25,2.68,2.68,0,0,0-1.52,1.74,4.23,4.23,0,0,0-.2,1.31,4.61,4.61,0,0,0,.25,1.52,3.67,3.67,0,0,0,.67,1.2,2.93,2.93,0,0,0,1,.78,2.85,2.85,0,0,0,1.27.28,5.62,5.62,0,0,0,.7-.05,3.58,3.58,0,0,0,.59-.12V19.52a.51.51,0,0,0-.19-.46,1.71,1.71,0,0,0-.65-.18.17.17,0,0,1-.13-.08.42.42,0,0,1,0-.15.63.63,0,0,1,0-.19l.77,0,.73,0,.71,0,.7,0a.81.81,0,0,1,0,.19.26.26,0,0,1,0,.16.24.24,0,0,1-.11.06,1.1,1.1,0,0,0-.53.16.41.41,0,0,0-.15.35v2.14a.28.28,0,0,1-.06.18A.6.6,0,0,1,60.61,21.82Z"/><path class="cls-8" d="M64.58,14.57v3.07h1.87a.37.37,0,0,0,.35-.23,3.29,3.29,0,0,0,.16-.57.19.19,0,0,1,.21-.16l.1,0,.09,0c0,.18,0,.38,0,.6s0,.42,0,.59,0,.3,0,.5,0,.41,0,.66l-.18,0a.2.2,0,0,1-.22-.16,3.29,3.29,0,0,0-.16-.57.35.35,0,0,0-.35-.23H64.58V21c0,.17.11.28.32.33a4.52,4.52,0,0,0,1.07.09h.66a1.85,1.85,0,0,0,.61-.1,1.48,1.48,0,0,0,.45-.28,2,2,0,0,0,.36-.41c.1-.16.2-.34.3-.53s.08-.09.18-.09a.28.28,0,0,1,.12,0l.13.07a3.87,3.87,0,0,0-.19.55q-.07.32-.15.6a3.47,3.47,0,0,1-.14.5c-.06.13-.12.2-.2.2h-.28l-.39,0-.42,0H64l-.75,0-.75,0a.81.81,0,0,1,0-.19c0-.11,0-.18.12-.19a3.61,3.61,0,0,0,.66-.18.35.35,0,0,0,.19-.34V14.93a.35.35,0,0,0-.17-.33,2.79,2.79,0,0,0-.68-.18q-.12,0-.12-.21a.31.31,0,0,1,0-.1.29.29,0,0,1,0-.09l.86.05h3a8.38,8.38,0,0,0,.93,0l.53,0c.11,0,.18.06.21.2a2.62,2.62,0,0,1,.09.47c0,.18,0,.38.09.59a1.38,1.38,0,0,0,.18.53.44.44,0,0,1-.22.07.19.19,0,0,1-.2-.11,5,5,0,0,0-.28-.53,1.42,1.42,0,0,0-.31-.37,1.05,1.05,0,0,0-.42-.22,2.47,2.47,0,0,0-.6-.07Z"/><path class="cls-8" d="M75.85,20V15a.42.42,0,0,0-.19-.38,2.09,2.09,0,0,0-.65-.16c-.09,0-.13-.08-.13-.21a1.76,1.76,0,0,1,0-.19l.61,0,.59,0,.55,0,.57,0a1.76,1.76,0,0,1,0,.19q0,.19-.12.21a1.45,1.45,0,0,0-.56.16.41.41,0,0,0-.15.35V22l-.08,0h-.1a.28.28,0,0,1-.15,0,.54.54,0,0,1-.17-.17L71,15.39V21a.35.35,0,0,0,.17.34,2.47,2.47,0,0,0,.64.18c.08,0,.12.08.12.19a.72.72,0,0,1,0,.19l-.61,0-.57,0-.56,0-.59,0a.72.72,0,0,1,0-.19c0-.11,0-.18.13-.19a2.08,2.08,0,0,0,.58-.18.38.38,0,0,0,.15-.34V14.87a.32.32,0,0,0-.14-.29,1.35,1.35,0,0,0-.57-.16c-.08,0-.13-.09-.13-.21s0-.07,0-.11,0,0,0-.08l.46,0h.79a3.76,3.76,0,0,1,.46,0,.35.35,0,0,1,.19.12Z"/><path class="cls-8" d="M86.31,18a4.25,4.25,0,0,1-.24,1.4,3.83,3.83,0,0,1-.75,1.26,3.69,3.69,0,0,1-1.26.9,4.28,4.28,0,0,1-1.78.34H79.82l-.71,0-.77,0a1.76,1.76,0,0,1,0-.19c0-.11,0-.18.13-.19a3.37,3.37,0,0,0,.64-.21.32.32,0,0,0,.19-.31V14.93a.34.34,0,0,0-.18-.33,2.1,2.1,0,0,0-.65-.18.14.14,0,0,1-.1-.08.28.28,0,0,1,0-.13,1.76,1.76,0,0,1,0-.19l.44,0,.36,0h3.13a4.62,4.62,0,0,1,1.77.31,3.57,3.57,0,0,1,1.26.84,3.43,3.43,0,0,1,.76,1.24A4.39,4.39,0,0,1,86.31,18Zm-1.26.23a3.67,3.67,0,0,0-.91-2.74,3.71,3.71,0,0,0-2.69-.9h-1V21a.34.34,0,0,0,.06.2.37.37,0,0,0,.2.13,1.71,1.71,0,0,0,.4.07,5.53,5.53,0,0,0,.63,0,5,5,0,0,0,1.56-.22,2.59,2.59,0,0,0,1-.64,2.54,2.54,0,0,0,.57-1A4.48,4.48,0,0,0,85.05,18.21Z"/><path class="cls-8" d="M89.91,18a4.09,4.09,0,0,1,.3-1.56A4,4,0,0,1,91,15.14a3.88,3.88,0,0,1,1.2-.88,3.23,3.23,0,0,1,1.44-.32,4.65,4.65,0,0,1,1.82.33,3.51,3.51,0,0,1,2.05,2.17A4.65,4.65,0,0,1,97.8,18a4.37,4.37,0,0,1-.32,1.7A3.64,3.64,0,0,1,96.63,21a3.89,3.89,0,0,1-1.29.8,4.56,4.56,0,0,1-1.58.27,4.2,4.2,0,0,1-1.56-.28A3.53,3.53,0,0,1,91,20.91a3.76,3.76,0,0,1-.8-1.27A4.86,4.86,0,0,1,89.91,18ZM94,21.45a2.32,2.32,0,0,0,1-.22,2.38,2.38,0,0,0,.81-.6,2.89,2.89,0,0,0,.52-.91,3.55,3.55,0,0,0,.18-1.15A6.7,6.7,0,0,0,96.4,17a4.08,4.08,0,0,0-.54-1.29,2.73,2.73,0,0,0-.93-.86,2.69,2.69,0,0,0-1.3-.31,2.32,2.32,0,0,0-.94.19,2.23,2.23,0,0,0-.79.54,2.54,2.54,0,0,0-.55.87,3.33,3.33,0,0,0-.2,1.19A6.67,6.67,0,0,0,91.34,19a4.38,4.38,0,0,0,.56,1.32,2.67,2.67,0,0,0,.9.87A2.53,2.53,0,0,0,94,21.45Z"/><path class="cls-8" d="M99.62,14.93a.34.34,0,0,0-.18-.33,2.27,2.27,0,0,0-.67-.18c-.06,0-.09,0-.1-.07a.41.41,0,0,1,0-.14,1.76,1.76,0,0,1,0-.19l.77,0,.71,0h2.38a8.26,8.26,0,0,0,.88,0l.58,0c.1,0,.16.06.2.2a2.56,2.56,0,0,1,.1.47c0,.18,0,.38.08.58a2,2,0,0,0,.17.54.15.15,0,0,1-.09.06l-.12,0a.21.21,0,0,1-.2-.11,4.65,4.65,0,0,0-.28-.55,1.27,1.27,0,0,0-.31-.37,1,1,0,0,0-.41-.21,2.06,2.06,0,0,0-.6-.07h-1.78v3.19h1.79a.34.34,0,0,0,.34-.23A2.49,2.49,0,0,0,103,17a.21.21,0,0,1,.22-.16.63.63,0,0,1,.19,0c0,.18,0,.38,0,.61s0,.42,0,.59,0,.3,0,.49,0,.41,0,.66a.57.57,0,0,1-.18,0,.38.38,0,0,1-.16,0,.17.17,0,0,1-.07-.13,2.1,2.1,0,0,0-.15-.55.37.37,0,0,0-.35-.24h-1.79v2.78c0,.16.1.27.31.33a4.94,4.94,0,0,0,.75.15c.09,0,.14.08.14.21a1.91,1.91,0,0,1,0,.2l-.54,0-.56,0h-.67l-.73,0-.76,0a1.76,1.76,0,0,1,0-.19c0-.12,0-.19.12-.19a6.09,6.09,0,0,0,.62-.19.32.32,0,0,0,.23-.33Z"/><path class="cls-8" d="M111,18.38h-.89V21a.38.38,0,0,0,.25.36,3.46,3.46,0,0,0,.75.15c.1,0,.14.09.14.21a.79.79,0,0,1,0,.2l-.79,0-.9,0-.72,0-.77,0a.72.72,0,0,1,0-.19c0-.11,0-.18.13-.19a2.1,2.1,0,0,0,.64-.18A.37.37,0,0,0,109,21V14.93a.38.38,0,0,0-.18-.34,1.66,1.66,0,0,0-.68-.17q-.12,0-.12-.21a.81.81,0,0,1,0-.19l.74,0,.73,0h1.62a2.92,2.92,0,0,1,2,.57,1.93,1.93,0,0,1,.66,1.54,1.81,1.81,0,0,1-.09.55,2,2,0,0,1-.28.57,2.28,2.28,0,0,1-.48.51,2.52,2.52,0,0,1-.69.38l2,2.78a1.24,1.24,0,0,0,.5.43,3.6,3.6,0,0,0,.52.18c.07,0,.1.07.1.17a.9.9,0,0,1,0,.22l-.67-.05h-.73a.82.82,0,0,1-.51-.22,2.4,2.4,0,0,1-.49-.55Zm-.25-.5a2.07,2.07,0,0,0,1.3-.35,1.5,1.5,0,0,0,.45-1.24,2.5,2.5,0,0,0-.09-.69,1.62,1.62,0,0,0-.31-.54,1.46,1.46,0,0,0-.55-.36,2.56,2.56,0,0,0-.84-.13h-.6v3.31Z"/><path class="cls-8" d="M118.19,14.57v3.07h1.87a.35.35,0,0,0,.34-.23,2.59,2.59,0,0,0,.16-.57.21.21,0,0,1,.22-.16l.09,0,.1,0c0,.18,0,.38,0,.6s0,.42,0,.59,0,.3,0,.5,0,.41,0,.66l-.18,0a.21.21,0,0,1-.23-.16,2.59,2.59,0,0,0-.16-.57.34.34,0,0,0-.34-.23h-1.87V21c0,.17.1.28.32.33a4.46,4.46,0,0,0,1.07.09h.66a1.79,1.79,0,0,0,.6-.1,1.42,1.42,0,0,0,.46-.28,2,2,0,0,0,.35-.41,3.85,3.85,0,0,0,.3-.53.18.18,0,0,1,.18-.09.33.33,0,0,1,.13,0l.13.07a2.35,2.35,0,0,0-.19.55q-.08.32-.15.6c0,.2-.1.36-.15.5s-.12.2-.2.2h-.27l-.39,0-.43,0h-3l-.74,0-.76,0a.72.72,0,0,1,0-.19c0-.11,0-.18.12-.19a3.24,3.24,0,0,0,.65-.18.36.36,0,0,0,.2-.34V14.93a.34.34,0,0,0-.18-.33,2.67,2.67,0,0,0-.67-.18q-.12,0-.12-.21v-.1a.29.29,0,0,1,0-.09l.86.05h3a8.69,8.69,0,0,0,.94,0l.53,0c.1,0,.17.06.21.2s.06.29.09.47,0,.38.08.59a1.38,1.38,0,0,0,.18.53.41.41,0,0,1-.22.07.2.2,0,0,1-.2-.11,5,5,0,0,0-.28-.53,1.39,1.39,0,0,0-.3-.37,1.2,1.2,0,0,0-.42-.22,2.63,2.63,0,0,0-.61-.07Z"/><path class="cls-8" d="M125.33,21a.28.28,0,0,0,.18.28,1.1,1.1,0,0,0,.49.09h1.3a1.82,1.82,0,0,0,.61-.09,1.34,1.34,0,0,0,.43-.26,1.94,1.94,0,0,0,.32-.41,3.63,3.63,0,0,0,.24-.56.14.14,0,0,1,.15-.1.27.27,0,0,1,.12,0l.14.07c-.06.24-.11.49-.16.76s-.1.57-.14.91c0,.08,0,.14-.07.16a.24.24,0,0,1-.15,0l-.51,0-.53,0h-3l-.7,0-.8,0a.81.81,0,0,1,0-.19c0-.11,0-.18.12-.19a2.41,2.41,0,0,0,.68-.19.34.34,0,0,0,.18-.32V14.93a.37.37,0,0,0-.17-.34,1.76,1.76,0,0,0-.65-.17.13.13,0,0,1-.09-.07.28.28,0,0,1,0-.13.88.88,0,0,1,0-.2l.8,0,.67,0,.87,0,.81,0a.81.81,0,0,1,0,.19c0,.14,0,.21-.14.22a2.88,2.88,0,0,0-.76.17.43.43,0,0,0-.24.42Z"/><path class="cls-8" d="M134.88,19H132.2L131.43,21a.6.6,0,0,0-.06.24c0,.16.25.28.74.36a.14.14,0,0,1,.11.06.28.28,0,0,1,0,.13,1.76,1.76,0,0,1,0,.19l-.69,0-.71,0h-.49l-.53.05a1.23,1.23,0,0,1,0-.19.33.33,0,0,1,0-.15s.06-.06.13-.07a2.09,2.09,0,0,0,.55-.15.49.49,0,0,0,.27-.28l2.9-7c.05-.14.13-.2.22-.2a.47.47,0,0,1,.15,0l2.9,7.18a.53.53,0,0,0,.33.26,2.22,2.22,0,0,0,.49.13.3.3,0,0,1,.11.07.21.21,0,0,1,0,.15.72.72,0,0,1,0,.19l-.76,0-.69,0-.77,0-.78,0a.72.72,0,0,1,0-.19.21.21,0,0,1,0-.15.1.1,0,0,1,.08,0,3.13,3.13,0,0,0,.5-.14.25.25,0,0,0,.19-.24.41.41,0,0,0-.05-.18Zm-.19-.49-1.12-2.94-1.16,2.94Z"/><path class="cls-8" d="M141.86,14.57V21a.41.41,0,0,0,.23.39,2.39,2.39,0,0,0,.77.17c.09,0,.13.07.13.2a1.91,1.91,0,0,1,0,.2l-.81,0-.86,0-.86,0-.82,0a.88.88,0,0,1,0-.2c0-.12,0-.18.12-.2a2.48,2.48,0,0,0,.78-.18.38.38,0,0,0,.24-.38V14.57H139.5a2.56,2.56,0,0,0-.61.07,1.2,1.2,0,0,0-.42.22,1.28,1.28,0,0,0-.32.37c-.08.15-.18.33-.27.53,0,0,0,.07-.08.08l-.1,0a.42.42,0,0,1-.23-.07c.08-.29.14-.55.18-.77s.08-.41.11-.56a1.41,1.41,0,0,1,.1-.34A.18.18,0,0,1,138,14h.24l.33,0,.36,0h4.67l.36,0,.33,0h.24a.19.19,0,0,1,.18.12c0,.09.06.21.1.36s.06.34.1.56a5.5,5.5,0,0,0,.19.75l-.12,0a.24.24,0,0,1-.12,0,.23.23,0,0,1-.11,0,.14.14,0,0,1-.09-.08,3.74,3.74,0,0,0-.26-.53,1.42,1.42,0,0,0-.31-.37,1.05,1.05,0,0,0-.42-.22,2.47,2.47,0,0,0-.6-.07Z"/><path class="cls-8" d="M147.88,21a.33.33,0,0,0,.17.33,2.91,2.91,0,0,0,.62.19c.08,0,.12.08.12.19a1.76,1.76,0,0,1,0,.19l-.75,0-.7,0-.72,0-.74,0a1.76,1.76,0,0,1,0-.19c0-.11,0-.18.12-.19a2.52,2.52,0,0,0,.62-.18.35.35,0,0,0,.17-.34V14.93a.35.35,0,0,0-.17-.34,1.68,1.68,0,0,0-.62-.17.14.14,0,0,1-.1-.08.51.51,0,0,1,0-.13,1.76,1.76,0,0,1,0-.19l.75,0,.71,0,.69,0,.76,0a1.76,1.76,0,0,1,0,.19q0,.18-.12.21a1.68,1.68,0,0,0-.62.17.35.35,0,0,0-.17.34Z"/><path class="cls-8" d="M149.64,18a4.09,4.09,0,0,1,.3-1.56,4.13,4.13,0,0,1,.82-1.28,4,4,0,0,1,1.2-.88,3.29,3.29,0,0,1,1.44-.32,4.62,4.62,0,0,1,1.82.33,3.56,3.56,0,0,1,1.29.88,3.85,3.85,0,0,1,.77,1.29,4.92,4.92,0,0,1,.25,1.54,4.37,4.37,0,0,1-.31,1.7,3.66,3.66,0,0,1-2.15,2.07,4.5,4.5,0,0,1-1.57.27,4.13,4.13,0,0,1-1.56-.28,3.59,3.59,0,0,1-2-2.1A4.63,4.63,0,0,1,149.64,18Zm4.13,3.47a2.32,2.32,0,0,0,1-.22,2.2,2.2,0,0,0,.81-.6,2.71,2.71,0,0,0,.52-.91,3.3,3.3,0,0,0,.19-1.15,6.7,6.7,0,0,0-.18-1.6,4.09,4.09,0,0,0-.55-1.29,2.54,2.54,0,0,0-2.23-1.17,2.36,2.36,0,0,0-.94.19,2.23,2.23,0,0,0-.79.54,2.38,2.38,0,0,0-.54.87,3.12,3.12,0,0,0-.21,1.19,6.67,6.67,0,0,0,.19,1.65,4.65,4.65,0,0,0,.56,1.32,2.7,2.7,0,0,0,.91.87A2.5,2.5,0,0,0,153.77,21.45Z"/><path class="cls-8" d="M164.65,20V15a.4.4,0,0,0-.19-.38,2.09,2.09,0,0,0-.65-.16c-.09,0-.13-.08-.13-.21a1.76,1.76,0,0,1,0-.19l.61,0,.59,0,.55,0,.57,0a1.76,1.76,0,0,1,0,.19q0,.19-.12.21a1.45,1.45,0,0,0-.56.16.41.41,0,0,0-.15.35V22l-.08,0H165a.28.28,0,0,1-.15,0,.54.54,0,0,1-.17-.17l-4.87-6.42V21a.35.35,0,0,0,.17.34,2.47,2.47,0,0,0,.64.18c.08,0,.12.08.12.19a.72.72,0,0,1,0,.19l-.61,0-.57,0-.56,0-.59,0a1.76,1.76,0,0,1,0-.19c0-.11,0-.18.13-.19a2.08,2.08,0,0,0,.58-.18.38.38,0,0,0,.15-.34V14.87a.32.32,0,0,0-.14-.29,1.35,1.35,0,0,0-.57-.16c-.08,0-.13-.09-.13-.21s0-.07,0-.11a.31.31,0,0,1,0-.08l.45,0h.79a4.11,4.11,0,0,1,.47,0,.36.36,0,0,1,.18.12Z"/><path class="cls-8" d="M172,16l-.18,0a.37.37,0,0,1-.23-.06.57.57,0,0,1-.1-.13,2.45,2.45,0,0,0-.75-1,2,2,0,0,0-1.17-.31,1.93,1.93,0,0,0-.55.07,1.59,1.59,0,0,0-.45.23,1.07,1.07,0,0,0-.3.37,1,1,0,0,0-.12.48,1.11,1.11,0,0,0,.47.92,6.52,6.52,0,0,0,1.4.74,4.82,4.82,0,0,1,1.7,1,1.9,1.9,0,0,1,.55,1.37,2.73,2.73,0,0,1-.15.92,2,2,0,0,1-.47.75,2.21,2.21,0,0,1-.82.49,3.63,3.63,0,0,1-1.21.18,5.58,5.58,0,0,1-1.35-.15,4,4,0,0,1-1-.41c0-.34-.06-.66-.11-1s-.1-.63-.17-.94a.66.66,0,0,1,.21,0,.36.36,0,0,1,.22.06.7.7,0,0,1,.14.21,2.9,2.9,0,0,0,.77,1.27,1.94,1.94,0,0,0,1.33.41,1.75,1.75,0,0,0,.67-.11,1.31,1.31,0,0,0,.48-.3,1.26,1.26,0,0,0,.29-.43,1.44,1.44,0,0,0,.09-.51,1.23,1.23,0,0,0-.42-1,4.28,4.28,0,0,0-1.22-.65,7.59,7.59,0,0,1-.94-.4,3.22,3.22,0,0,1-.72-.48,2,2,0,0,1-.46-.65,2.08,2.08,0,0,1-.16-.87,2.12,2.12,0,0,1,.16-.83,1.89,1.89,0,0,1,.47-.68,2.19,2.19,0,0,1,.74-.45,2.5,2.5,0,0,1,1-.17,4.77,4.77,0,0,1,1.08.11,7.12,7.12,0,0,1,1.16.36c0,.24,0,.49.07.77S172,15.72,172,16Z"/><path class="cls-8" d="M180.22,21a.34.34,0,0,0,.16.33,2.56,2.56,0,0,0,.62.19c.08,0,.12.07.12.16a1.8,1.8,0,0,1,0,.22l-.71,0-.73,0-.71,0-.73,0a.89.89,0,0,1,0-.22c0-.09,0-.15.12-.16a2.67,2.67,0,0,0,.62-.18.37.37,0,0,0,.16-.34v-2.9h-3.76V21a.35.35,0,0,0,.15.33,2.68,2.68,0,0,0,.63.19.15.15,0,0,1,.13.16.89.89,0,0,1,0,.22l-.72,0-.73,0-.71,0-.74,0a.86.86,0,0,1,0-.22c0-.09,0-.15.12-.16a2.52,2.52,0,0,0,.62-.18.37.37,0,0,0,.17-.34v-6.1a.5.5,0,0,0,0-.19.27.27,0,0,0-.12-.14.55.55,0,0,0-.23-.1l-.39-.09c-.08,0-.12-.08-.12-.2a1.91,1.91,0,0,1,0-.2l.7,0,.72,0,.71,0,.73,0a.79.79,0,0,1,0,.2c0,.12,0,.18-.12.2a1.33,1.33,0,0,0-.61.18.38.38,0,0,0-.15.34v2.69h3.76V14.94a.42.42,0,0,0-.14-.33,1.31,1.31,0,0,0-.61-.19c-.09,0-.13-.08-.13-.2a.79.79,0,0,1,0-.2l.7,0,.72,0,.7,0,.74,0a1.91,1.91,0,0,1,0,.2c0,.12,0,.18-.12.2a1.38,1.38,0,0,0-.62.18.38.38,0,0,0-.15.34Z"/><path class="cls-8" d="M184.28,21a.35.35,0,0,0,.17.33,2.86,2.86,0,0,0,.63.19c.08,0,.12.08.12.19a.81.81,0,0,1,0,.19l-.74,0-.71,0-.71,0-.74,0a.81.81,0,0,1,0-.19c0-.11,0-.18.12-.19a2.49,2.49,0,0,0,.63-.18.37.37,0,0,0,.17-.34V14.93a.37.37,0,0,0-.17-.34,1.69,1.69,0,0,0-.63-.17.12.12,0,0,1-.09-.08.28.28,0,0,1,0-.13.81.81,0,0,1,0-.19l.75,0,.7,0,.69,0,.76,0a.81.81,0,0,1,0,.19q0,.18-.12.21a1.69,1.69,0,0,0-.63.17.37.37,0,0,0-.17.34Z"/><path class="cls-8" d="M188.41,18.5V21a.4.4,0,0,0,.27.39,3.6,3.6,0,0,0,.79.18c.09,0,.14.09.14.21a1.91,1.91,0,0,1,0,.2l-.79,0-1,0-.71,0-.75,0a1.76,1.76,0,0,1,0-.19c0-.11,0-.18.12-.19a2.82,2.82,0,0,0,.64-.19.34.34,0,0,0,.16-.33V14.93a.39.39,0,0,0-.18-.35,2.09,2.09,0,0,0-.67-.16c-.08,0-.12-.09-.12-.22a.57.57,0,0,1,0-.18l.71,0,.71,0h1.7a2.72,2.72,0,0,1,1.94.61,2.1,2.1,0,0,1,.65,1.59,1.92,1.92,0,0,1-.18.78,2.14,2.14,0,0,1-.5.71,2.5,2.5,0,0,1-.82.52,2.72,2.72,0,0,1-1.09.21Zm.64-.5a2,2,0,0,0,1.29-.37,1.53,1.53,0,0,0,.46-1.26,3,3,0,0,0-.08-.69,1.54,1.54,0,0,0-.29-.57,1.34,1.34,0,0,0-.54-.39,2.1,2.1,0,0,0-.84-.15h-.64V18Z"/><path class="cls-8" d="M198,16l-.18,0a.37.37,0,0,1-.23-.06.63.63,0,0,1-.11-.13,2.36,2.36,0,0,0-.74-1,2,2,0,0,0-1.18-.31,1.9,1.9,0,0,0-.54.07,1.59,1.59,0,0,0-.45.23,1.23,1.23,0,0,0-.31.37,1.06,1.06,0,0,0-.11.48,1.11,1.11,0,0,0,.47.92,6.29,6.29,0,0,0,1.4.74,4.91,4.91,0,0,1,1.7,1,1.89,1.89,0,0,1,.54,1.37,2.73,2.73,0,0,1-.15.92,2,2,0,0,1-.46.75,2.26,2.26,0,0,1-.83.49,3.59,3.59,0,0,1-1.21.18,5.69,5.69,0,0,1-1.35-.15,4,4,0,0,1-1-.41c0-.34-.06-.66-.11-1s-.11-.63-.17-.94a.6.6,0,0,1,.2,0,.39.39,0,0,1,.23.06.69.69,0,0,1,.13.21,2.82,2.82,0,0,0,.78,1.27,1.92,1.92,0,0,0,1.32.41,1.8,1.8,0,0,0,.68-.11,1.31,1.31,0,0,0,.48-.3,1.23,1.23,0,0,0,.28-.43,1.25,1.25,0,0,0,.1-.51,1.21,1.21,0,0,0-.43-1,4.21,4.21,0,0,0-1.21-.65,7.59,7.59,0,0,1-.94-.4,3.22,3.22,0,0,1-.72-.48,2,2,0,0,1-.46-.65,2.08,2.08,0,0,1-.16-.87,2.12,2.12,0,0,1,.16-.83,1.89,1.89,0,0,1,.47-.68,2.25,2.25,0,0,1,.73-.45,2.55,2.55,0,0,1,1-.17,4.83,4.83,0,0,1,1.08.11,7.12,7.12,0,0,1,1.16.36c0,.24,0,.49.07.77A5.7,5.7,0,0,0,198,16Z"/></g></g></g></svg>