<svg xmlns="http://www.w3.org/2000/svg" viewBox="0 0 168.83 71.08"><defs><style>.cls-1{fill:#e12129;}.cls-2{fill:#231f20;}</style></defs><title>logo</title><g id="Layer_2" data-name="Layer 2"><g id="Poster"><g id="Title"><path class="cls-1" d="M54.38,45,49.76,71.08H0L33.05,7.37H12.35L0,20.79,4.8,0H54L20.52,64.15H40.69ZM12.71,61.58,23.55,46l-.27-3.91-3.55,2Zm12-27,.53,3.91,3.56-1.68-.45-4.09Zm5.42-9.41.18,3.91,3.46-2,7-17.41Z"/><path class="cls-1" d="M62.48,17V31h4.37l4.51-5.77V41.84l-4.51-5.71H62.48V50.94h9.25L78.1,36.13V56.27H46.19l5.25-4.59V16.22l-5.25-4.59H78.1v16.8L71.21,17Z"/><path class="cls-1" d="M104.82,31.69V56.27H74l5.26-4.59V16.22L74,11.63H95.64l-5.33,4.59V51.68H97Z"/><path class="cls-1" d="M138.58,34c0,13.4-9.33,22.28-21.1,22.28H100.75L106,51.68V16.22l-5.25-4.59h15.92C129.4,11.63,138.58,20.73,138.58,34Zm-10.51,0c0-12.81-7.11-17.7-11-17.7V51.54C120.15,51.54,128.07,46.72,128.07,34Z"/><path class="cls-1" d="M152.69,52.57,150.47,42.5h-8.81L139,52.42l4.89,3.85H127.07l5.55-4.59,10.44-35.46-5.25-4.59h16l10,40.05,5,4.59H148.91Zm-3.41-15.4L146.4,24.58l-3.34,12.59Z"/><path class="cls-2" d="M78.47,3.12v5.5a.34.34,0,0,0,.19.33,1.89,1.89,0,0,0,.66.15c.08,0,.11.06.11.17a.59.59,0,0,1,0,.17l-.69,0c-.25,0-.49,0-.74,0s-.48,0-.74,0l-.7,0a1.49,1.49,0,0,1,0-.17c0-.1,0-.15.1-.17A2.7,2.7,0,0,0,77.29,9a.35.35,0,0,0,.21-.33V3.12H76.44a1.9,1.9,0,0,0-.52.06,1,1,0,0,0-.37.18,1.43,1.43,0,0,0-.27.32c-.07.13-.15.28-.23.46a.23.23,0,0,1-.07.07l-.09,0a.34.34,0,0,1-.2-.06c.07-.25.12-.47.16-.66s.06-.35.09-.48a1.86,1.86,0,0,1,.09-.3.16.16,0,0,1,.15-.1h.21l.28,0,.3,0h4l.31,0,.28,0h.21a.16.16,0,0,1,.15.11A1.86,1.86,0,0,1,81,3c0,.13.06.3.09.49a4,4,0,0,0,.16.64l-.1,0-.11,0-.09,0a.12.12,0,0,1-.07-.07,3.93,3.93,0,0,0-.23-.46,1.4,1.4,0,0,0-.26-.32,1,1,0,0,0-.36-.18,2,2,0,0,0-.52-.06Z"/><path class="cls-2" d="M87.74,8.67a.29.29,0,0,0,.13.28,2,2,0,0,0,.54.16c.07,0,.1.06.1.15a1.41,1.41,0,0,1,0,.18l-.61,0c-.23,0-.44,0-.62,0s-.39,0-.61,0l-.63,0a.62.62,0,0,1,0-.18c0-.09,0-.13.1-.15A2.11,2.11,0,0,0,86.62,9a.31.31,0,0,0,.15-.29V6.18H83.53V8.67a.29.29,0,0,0,.14.28,2,2,0,0,0,.53.16.14.14,0,0,1,.12.15,1.41,1.41,0,0,1,0,.18l-.62,0c-.24,0-.44,0-.63,0s-.4,0-.61,0l-.64,0a1.41,1.41,0,0,1,0-.18.14.14,0,0,1,.11-.15A2.23,2.23,0,0,0,82.42,9a.31.31,0,0,0,.15-.29V3.43a.47.47,0,0,0,0-.17.26.26,0,0,0-.1-.11.46.46,0,0,0-.2-.09L81.91,3c-.07,0-.11-.06-.11-.16a1.41,1.41,0,0,1,0-.18l.6,0h1.23l.63,0a1.41,1.41,0,0,1,0,.18c0,.09,0,.15-.11.16a1.27,1.27,0,0,0-.53.16.35.35,0,0,0-.13.29V5.74h3.24V3.43a.36.36,0,0,0-.12-.28A1.19,1.19,0,0,0,86.12,3C86,3,86,2.92,86,2.82a.62.62,0,0,1,0-.18l.6,0h1.22l.63,0a1.41,1.41,0,0,1,0,.18c0,.09,0,.15-.1.16a1.17,1.17,0,0,0-.53.16.32.32,0,0,0-.13.29Z"/><path class="cls-2" d="M91.28,3.12V5.75h1.61a.29.29,0,0,0,.29-.2,1.8,1.8,0,0,0,.14-.49c0-.09.08-.13.19-.13h.08l.08,0q0,.23,0,.51c0,.2,0,.37,0,.51s0,.26,0,.43,0,.36,0,.57l-.15,0a.18.18,0,0,1-.2-.13,1.8,1.8,0,0,0-.14-.49.29.29,0,0,0-.29-.2H91.28V8.61c0,.14.09.24.28.29a4.72,4.72,0,0,0,.92.07H93a1.35,1.35,0,0,0,.52-.09,1.47,1.47,0,0,0,.4-.24,2,2,0,0,0,.3-.35c.09-.14.17-.29.26-.46a.16.16,0,0,1,.15-.07.23.23,0,0,1,.11,0l.11.06a2.58,2.58,0,0,0-.16.47l-.13.52c0,.17-.09.31-.13.43s-.1.17-.17.17h-.57l-.37,0H90.79c-.2,0-.42,0-.64,0l-.65,0a1.37,1.37,0,0,1,0-.16c0-.1,0-.15.1-.17A2.79,2.79,0,0,0,90.14,9a.29.29,0,0,0,.17-.29V3.42a.29.29,0,0,0-.15-.28A2.8,2.8,0,0,0,89.58,3c-.07,0-.1-.07-.1-.17V2.72s0-.05,0-.08c.29,0,.54,0,.74,0h2.57c.31,0,.57,0,.8,0l.45,0c.09,0,.15.06.18.17a3,3,0,0,1,.08.41c0,.16.05.32.07.5a1.25,1.25,0,0,0,.16.46.33.33,0,0,1-.19.06c-.09,0-.15,0-.17-.09A4.72,4.72,0,0,0,94,3.68a1.4,1.4,0,0,0-.26-.32,1,1,0,0,0-.36-.18,2,2,0,0,0-.52-.06Z"/><path class="cls-2" d="M99.68,8.65a.26.26,0,0,0,.15.25,1.24,1.24,0,0,0,.43.07h1.12a1.52,1.52,0,0,0,.51-.08,1,1,0,0,0,.37-.22,1.45,1.45,0,0,0,.28-.36,2.67,2.67,0,0,0,.21-.48.12.12,0,0,1,.12-.08.23.23,0,0,1,.11,0l.12,0c0,.21-.1.43-.14.66a7.17,7.17,0,0,0-.12.78.2.2,0,0,1-.06.14.27.27,0,0,1-.12,0l-.44,0-.46,0H99.18c-.15,0-.35,0-.59,0l-.69,0a.53.53,0,0,1,0-.16c0-.1,0-.15.1-.17A1.92,1.92,0,0,0,98.55,9a.29.29,0,0,0,.16-.27V3.42a.33.33,0,0,0-.14-.29A1.71,1.71,0,0,0,98,3a.1.1,0,0,1-.08-.06.16.16,0,0,1,0-.1.62.62,0,0,1,0-.18l.69,0h1.32l.7,0a1.49,1.49,0,0,1,0,.17c0,.11,0,.18-.12.18a2.73,2.73,0,0,0-.65.15.37.37,0,0,0-.21.36Z"/><path class="cls-2" d="M105.43,3.12V5.75H107a.3.3,0,0,0,.3-.2,2.24,2.24,0,0,0,.14-.49.16.16,0,0,1,.18-.13h.08l.09,0c0,.15,0,.32,0,.51s0,.37,0,.51,0,.26,0,.43,0,.36,0,.57l-.16,0a.17.17,0,0,1-.19-.13,2.24,2.24,0,0,0-.14-.49.3.3,0,0,0-.3-.2h-1.6V8.61c0,.14.09.24.27.29a4.79,4.79,0,0,0,.92.07h.57a1.38,1.38,0,0,0,.52-.09,1.28,1.28,0,0,0,.39-.24,2,2,0,0,0,.3-.35,4,4,0,0,0,.26-.46s.07-.07.16-.07a.19.19,0,0,1,.1,0l.11.06a3.67,3.67,0,0,0-.16.47c0,.19-.08.36-.13.52s-.08.31-.12.43-.11.17-.17.17h-.58l-.36,0h-2.58c-.2,0-.41,0-.64,0l-.65,0a1.37,1.37,0,0,1,0-.16.15.15,0,0,1,.11-.17,2.79,2.79,0,0,0,.56-.15.3.3,0,0,0,.17-.29V3.42a.29.29,0,0,0-.15-.28,2.8,2.8,0,0,0-.58-.16c-.07,0-.11-.07-.11-.17s0-.07,0-.09,0-.05,0-.08c.3,0,.55,0,.75,0H107q.47,0,.81,0l.45,0c.09,0,.15.06.18.17a3,3,0,0,1,.08.41c0,.16,0,.32.07.5a1.46,1.46,0,0,0,.15.46.28.28,0,0,1-.18.06.18.18,0,0,1-.18-.09,3.22,3.22,0,0,0-.24-.46,1.18,1.18,0,0,0-.26-.32,1,1,0,0,0-.36-.18,1.9,1.9,0,0,0-.52-.06Z"/><path class="cls-2" d="M115.2,9.34c-.3.05-.62.1-.94.13s-.7,0-1.14,0a4.24,4.24,0,0,1-1.54-.26,3,3,0,0,1-1.08-.74,2.93,2.93,0,0,1-.65-1.09A4.39,4.39,0,0,1,109.64,6a3.79,3.79,0,0,1,.21-1.23,3.37,3.37,0,0,1,.64-1.12,3.3,3.3,0,0,1,1.08-.81,3.39,3.39,0,0,1,1.51-.31,5.62,5.62,0,0,1,.59,0,5.48,5.48,0,0,1,.57.05l.56.1.61.14a6.85,6.85,0,0,0,.08.75,4.74,4.74,0,0,0,.15.75.11.11,0,0,1-.09,0h-.1a.19.19,0,0,1-.21-.13,1.65,1.65,0,0,0-.62-1,2.27,2.27,0,0,0-1.27-.3,2.74,2.74,0,0,0-1.15.22,2.16,2.16,0,0,0-.82.59,2.45,2.45,0,0,0-.49.9,3.67,3.67,0,0,0-.17,1.13,3.85,3.85,0,0,0,.21,1.3,3.21,3.21,0,0,0,.58,1,2.37,2.37,0,0,0,.87.67,2.44,2.44,0,0,0,1.08.24,4.26,4.26,0,0,0,.61,0,4.19,4.19,0,0,0,.51-.1V7.36a.44.44,0,0,0-.17-.39,1.51,1.51,0,0,0-.56-.16.12.12,0,0,1-.11-.07.27.27,0,0,1,0-.12,1,1,0,0,1,0-.17l.66,0h1.24l.6,0a.59.59,0,0,1,0,.17.24.24,0,0,1,0,.14.15.15,0,0,1-.09,0,1.13,1.13,0,0,0-.46.14.39.39,0,0,0-.13.31V9.08a.24.24,0,0,1-.05.16A.56.56,0,0,1,115.2,9.34Z"/><path class="cls-2" d="M118.79,3.12V5.75h1.61a.3.3,0,0,0,.29-.2,2.24,2.24,0,0,0,.14-.49.16.16,0,0,1,.18-.13h.09l.08,0c0,.15,0,.32,0,.51s0,.37,0,.51,0,.26,0,.43,0,.36,0,.57L121,7a.17.17,0,0,1-.19-.13,2.24,2.24,0,0,0-.14-.49.3.3,0,0,0-.29-.2h-1.61V8.61c0,.14.09.24.28.29A4.6,4.6,0,0,0,120,9h.57a1.38,1.38,0,0,0,.52-.09,1.28,1.28,0,0,0,.39-.24,1.73,1.73,0,0,0,.31-.35,4,4,0,0,0,.25-.46.17.17,0,0,1,.16-.07l.11,0,.1.06a2.6,2.6,0,0,0-.15.47l-.13.52c0,.17-.09.31-.13.43s-.1.17-.17.17h-.57l-.37,0h-2.58c-.2,0-.41,0-.63,0l-.65,0a.53.53,0,0,1,0-.16c0-.1,0-.15.1-.17a2.79,2.79,0,0,0,.56-.15.3.3,0,0,0,.17-.29V3.42a.29.29,0,0,0-.15-.28,2.8,2.8,0,0,0-.58-.16c-.07,0-.1-.07-.1-.17V2.72a.24.24,0,0,1,0-.08c.29,0,.54,0,.74,0h2.56q.47,0,.81,0l.45,0c.09,0,.15.06.18.17a3,3,0,0,1,.08.41c0,.16,0,.32.07.5a1.46,1.46,0,0,0,.15.46.28.28,0,0,1-.18.06.18.18,0,0,1-.18-.09,4.9,4.9,0,0,0-.23-.46,1.43,1.43,0,0,0-.27-.32,1,1,0,0,0-.36-.18,1.9,1.9,0,0,0-.52-.06Z"/><path class="cls-2" d="M128.54,7.75V3.45a.32.32,0,0,0-.16-.32,1.61,1.61,0,0,0-.56-.15c-.07,0-.11-.06-.11-.17a1.49,1.49,0,0,1,0-.17l.53,0h1l.48,0a1.49,1.49,0,0,1,0,.17c0,.11,0,.16-.1.17a1.07,1.07,0,0,0-.48.15.32.32,0,0,0-.13.29V9.49l-.07,0h-.09a.31.31,0,0,1-.13,0,.69.69,0,0,1-.14-.15l-4.19-5.51V8.67a.31.31,0,0,0,.15.29,2.18,2.18,0,0,0,.55.15.15.15,0,0,1,.11.17,1.37,1.37,0,0,1,0,.16l-.52,0a4.27,4.27,0,0,0-.49,0,4.44,4.44,0,0,0-.49,0l-.5,0a.53.53,0,0,1,0-.16.15.15,0,0,1,.11-.17,1.89,1.89,0,0,0,.5-.15.31.31,0,0,0,.13-.29V3.37a.29.29,0,0,0-.12-.25,1.26,1.26,0,0,0-.49-.14c-.07,0-.11-.07-.11-.17a.31.31,0,0,1,0-.1.2.2,0,0,1,0-.07l.39,0,.35,0h.33l.4,0a.29.29,0,0,1,.16.11Z"/><path class="cls-2" d="M137.51,6a3.63,3.63,0,0,1-.21,1.21,3.24,3.24,0,0,1-.64,1.07,3.33,3.33,0,0,1-1.08.78,3.83,3.83,0,0,1-1.53.29h-2.12c-.17,0-.38,0-.6,0l-.66,0a.53.53,0,0,1,0-.16c0-.1,0-.15.11-.17a3.37,3.37,0,0,0,.55-.17.29.29,0,0,0,.16-.27V3.42a.29.29,0,0,0-.15-.28,2,2,0,0,0-.56-.16.15.15,0,0,1-.09-.06.36.36,0,0,1,0-.11.59.59,0,0,1,0-.17l.37,0h3a4,4,0,0,1,1.52.27,3.19,3.19,0,0,1,1.08.72,2.89,2.89,0,0,1,.65,1.06A3.74,3.74,0,0,1,137.51,6Zm-1.08.2a3.18,3.18,0,0,0-.79-2.36,3.18,3.18,0,0,0-2.3-.76h-.9V8.6a.31.31,0,0,0,.05.17.29.29,0,0,0,.18.11A1.65,1.65,0,0,0,133,9l.54,0a4.28,4.28,0,0,0,1.34-.19,2.21,2.21,0,0,0,.89-.55,2.15,2.15,0,0,0,.49-.86A3.63,3.63,0,0,0,136.43,6.24Z"/><path class="cls-2" d="M140.6,6a3.37,3.37,0,0,1,.26-1.34,3.5,3.5,0,0,1,.7-1.1,3.18,3.18,0,0,1,1-.75,2.77,2.77,0,0,1,1.23-.28,4,4,0,0,1,1.57.28,3.2,3.2,0,0,1,1.11.77,3,3,0,0,1,.65,1.1A3.89,3.89,0,0,1,147.37,6a3.76,3.76,0,0,1-.27,1.46,3.1,3.1,0,0,1-.74,1.09,3.21,3.21,0,0,1-1.1.69,4,4,0,0,1-1.35.23,3.59,3.59,0,0,1-1.34-.24,3,3,0,0,1-1-.71,3.15,3.15,0,0,1-.68-1.1A4,4,0,0,1,140.6,6Zm3.54,3a2,2,0,0,0,.89-.19,1.94,1.94,0,0,0,.69-.51,2.49,2.49,0,0,0,.45-.78,3.21,3.21,0,0,0,.16-1,5.45,5.45,0,0,0-.16-1.38,3.33,3.33,0,0,0-.47-1.1,2.33,2.33,0,0,0-.79-.74,2.14,2.14,0,0,0-2.61.36,2.4,2.4,0,0,0-.47.74,3,3,0,0,0-.17,1,5.83,5.83,0,0,0,.16,1.42A3.64,3.64,0,0,0,142.3,8a2.32,2.32,0,0,0,.78.75A2.06,2.06,0,0,0,144.14,9Z"/><path class="cls-2" d="M149.16,3.42a.28.28,0,0,0-.16-.28,2.14,2.14,0,0,0-.57-.16q-.08,0-.09-.06a.31.31,0,0,1,0-.11.59.59,0,0,1,0-.17l.66,0h2.64c.27,0,.52,0,.77,0l.49,0c.08,0,.14.06.17.17a1.93,1.93,0,0,1,.09.41c0,.16,0,.32.07.5a1.91,1.91,0,0,0,.14.46.16.16,0,0,1-.08,0l-.1,0a.18.18,0,0,1-.17-.09,3.56,3.56,0,0,0-.24-.48,1.24,1.24,0,0,0-.27-.32,1,1,0,0,0-.35-.18,2,2,0,0,0-.52,0h-1.52V5.86h1.53a.31.31,0,0,0,.3-.21,3.35,3.35,0,0,0,.14-.47.17.17,0,0,1,.18-.14l.17,0c0,.15,0,.33,0,.52s0,.37,0,.51,0,.26,0,.43,0,.35,0,.56a.47.47,0,0,1-.16,0l-.13,0A.11.11,0,0,1,152.1,7a2.09,2.09,0,0,0-.14-.48.31.31,0,0,0-.3-.2h-1.53V8.68c0,.14.09.23.26.28a4.22,4.22,0,0,0,.64.13c.09,0,.13.07.13.18a1.49,1.49,0,0,1,0,.17l-.47,0-.47,0h-.58c-.18,0-.39,0-.63,0l-.64,0a.53.53,0,0,1,0-.16c0-.11,0-.16.1-.17A3.48,3.48,0,0,0,149,9a.28.28,0,0,0,.2-.28Z"/><path class="cls-2" d="M66.91,64.61a4,4,0,0,1,.29-1.54A4.3,4.3,0,0,1,68,61.8a3.86,3.86,0,0,1,1.18-.86,3.2,3.2,0,0,1,1.42-.32,4.71,4.71,0,0,1,1.8.32,3.6,3.6,0,0,1,1.28.88,3.78,3.78,0,0,1,.75,1.27,4.57,4.57,0,0,1,.25,1.52,4.3,4.3,0,0,1-.31,1.68,3.65,3.65,0,0,1-2.11,2,4.49,4.49,0,0,1-1.56.27,4,4,0,0,1-1.54-.28,3.35,3.35,0,0,1-1.2-.81,3.7,3.7,0,0,1-.79-1.26A4.74,4.74,0,0,1,66.91,64.61ZM71,68a2.45,2.45,0,0,0,1-.21,2.31,2.31,0,0,0,.79-.59,2.66,2.66,0,0,0,.52-.9,3.49,3.49,0,0,0,.18-1.14,6.59,6.59,0,0,0-.18-1.58,3.74,3.74,0,0,0-.53-1.27,2.67,2.67,0,0,0-.92-.85,2.6,2.6,0,0,0-1.28-.3,2.41,2.41,0,0,0-.93.18,2.21,2.21,0,0,0-.78.53,2.52,2.52,0,0,0-.54.86,3.07,3.07,0,0,0-.2,1.18,6.43,6.43,0,0,0,.19,1.62,4.11,4.11,0,0,0,.55,1.31,2.71,2.71,0,0,0,.89.86A2.45,2.45,0,0,0,71,68Z"/><path class="cls-2" d="M79.74,68.6A4.48,4.48,0,0,1,78,68.29a3.28,3.28,0,0,1-1.23-.84A3.43,3.43,0,0,1,76,66.18a5,5,0,0,1-.24-1.57A4.35,4.35,0,0,1,76,63.2a3.83,3.83,0,0,1,.74-1.28A3.63,3.63,0,0,1,78,61a4,4,0,0,1,1.75-.36c.26,0,.5,0,.71,0l.63,0,.58.11.59.15a6.86,6.86,0,0,0,.08.78c0,.31.11.62.19.94a.43.43,0,0,1-.19,0,.47.47,0,0,1-.17,0,.14.14,0,0,1-.1-.13,1.91,1.91,0,0,0-.68-1.11A2.26,2.26,0,0,0,80,61.12a3.23,3.23,0,0,0-1.29.23,2.6,2.6,0,0,0-1,.67,2.69,2.69,0,0,0-.58,1,4.27,4.27,0,0,0-.2,1.33,4.55,4.55,0,0,0,.25,1.51,3.87,3.87,0,0,0,.67,1.18,3,3,0,0,0,1,.77,2.79,2.79,0,0,0,1.21.28A3,3,0,0,0,81,68a1.51,1.51,0,0,0,.58-.29,1.76,1.76,0,0,0,.39-.46,5.5,5.5,0,0,0,.3-.64.28.28,0,0,1,.28-.18l.13,0,.1,0c-.1.28-.19.58-.29.92s-.17.66-.23,1c-.39.06-.78.11-1.19.15S80.22,68.6,79.74,68.6Z"/><path class="cls-2" d="M88.25,65.64H85.61l-.76,1.91a.57.57,0,0,0,0,.24c0,.16.24.28.72.35a.14.14,0,0,1,.11.07.21.21,0,0,1,0,.12,1.76,1.76,0,0,1,0,.19l-.68,0-.7,0h-.48l-.53,0a1.23,1.23,0,0,1,0-.19.32.32,0,0,1,0-.14s.06-.06.13-.07a2.22,2.22,0,0,0,.55-.15.51.51,0,0,0,.26-.28l2.86-6.87c0-.14.13-.2.22-.2l.15,0,2.86,7.09a.58.58,0,0,0,.32.26,3.24,3.24,0,0,0,.49.13.29.29,0,0,1,.11.06.21.21,0,0,1,0,.15,1.76,1.76,0,0,1,0,.19l-.75,0-.68,0-.76,0-.77,0a.81.81,0,0,1,0-.19.27.27,0,0,1,0-.15.2.2,0,0,1,.08,0,2.19,2.19,0,0,0,.5-.14c.13,0,.19-.12.19-.23a.51.51,0,0,0,0-.17Zm-.18-.48L87,62.25l-1.15,2.91Z"/><path class="cls-2" d="M94.81,65h-.88v2.61a.35.35,0,0,0,.24.35,2.87,2.87,0,0,0,.74.16c.1,0,.15.08.15.2a.88.88,0,0,1,0,.2l-.77,0-.9,0-.71,0-.76,0a1.76,1.76,0,0,1,0-.19c0-.11,0-.17.13-.19a2.08,2.08,0,0,0,.63-.17.37.37,0,0,0,.19-.34v-6a.38.38,0,0,0-.18-.34,1.77,1.77,0,0,0-.66-.17c-.08,0-.12-.07-.12-.2a.72.72,0,0,1,0-.19l.74,0,.72,0h1.6a2.92,2.92,0,0,1,1.93.56,1.94,1.94,0,0,1,.65,1.53,1.79,1.79,0,0,1-.09.54,2.22,2.22,0,0,1-.27.56,2.05,2.05,0,0,1-.48.5,2.33,2.33,0,0,1-.68.37l2,2.75a1.24,1.24,0,0,0,.5.43,3.14,3.14,0,0,0,.51.18c.07,0,.11.07.11.16a.89.89,0,0,1,0,.22l-.66,0h-.72a.77.77,0,0,1-.51-.22,2.56,2.56,0,0,1-.48-.54Zm-.25-.48a2.07,2.07,0,0,0,1.28-.35,1.49,1.49,0,0,0,.45-1.23,2.11,2.11,0,0,0-.1-.68,1.33,1.33,0,0,0-.3-.53,1.37,1.37,0,0,0-.54-.35,2.26,2.26,0,0,0-.83-.13h-.59v3.27Z"/><path class="cls-2" d="M101.56,67.63a.35.35,0,0,0,.17.33,2.4,2.4,0,0,0,.61.18c.08,0,.12.08.12.19a1.76,1.76,0,0,1,0,.19l-.74,0-.7,0-.7,0-.73,0a.72.72,0,0,1,0-.19c0-.11,0-.17.11-.19a1.86,1.86,0,0,0,.62-.18.35.35,0,0,0,.17-.33v-6a.37.37,0,0,0-.17-.34,2.21,2.21,0,0,0-.62-.17.13.13,0,0,1-.09-.07.27.27,0,0,1,0-.13.72.72,0,0,1,0-.19l.74,0,.69,0,.68,0,.76,0a1.76,1.76,0,0,1,0,.19c0,.12,0,.19-.12.2a2.12,2.12,0,0,0-.61.17.37.37,0,0,0-.17.34Z"/><path class="cls-2" d="M109.69,66.58v-5a.39.39,0,0,0-.19-.36,2,2,0,0,0-.64-.17c-.09,0-.13-.07-.13-.2a1.76,1.76,0,0,1,0-.19l.61,0,.58,0,.54,0,.56,0a1.76,1.76,0,0,1,0,.19c0,.13,0,.19-.12.2a1.36,1.36,0,0,0-.55.17.38.38,0,0,0-.15.34v7l-.08,0h-.09a.29.29,0,0,1-.16,0,.67.67,0,0,1-.16-.17l-4.81-6.34v5.58a.34.34,0,0,0,.16.33,1.93,1.93,0,0,0,.64.18c.08,0,.12.08.12.19a1.76,1.76,0,0,1,0,.19l-.6,0-.56,0-.56,0-.58,0a.81.81,0,0,1,0-.19.17.17,0,0,1,.13-.19,1.57,1.57,0,0,0,.58-.18.35.35,0,0,0,.15-.33V61.54a.36.36,0,0,0-.14-.29,1.34,1.34,0,0,0-.56-.16c-.09,0-.13-.08-.13-.2a.41.41,0,0,1,0-.11.25.25,0,0,1,0-.08l.45,0h.78l.46,0a.29.29,0,0,1,.18.12Z"/><path class="cls-2" d="M116,65.64h-2.64l-.76,1.91a.6.6,0,0,0-.06.24c0,.16.24.28.72.35a.15.15,0,0,1,.12.07.21.21,0,0,1,0,.12.81.81,0,0,1,0,.19l-.67,0-.7,0h-.49l-.52,0a.62.62,0,0,1,0-.19.32.32,0,0,1,0-.14.15.15,0,0,1,.12-.07,2,2,0,0,0,.55-.15.57.57,0,0,0,.27-.28l2.85-6.87c.06-.14.13-.2.23-.2l.14,0L118,67.73a.54.54,0,0,0,.32.26,3.13,3.13,0,0,0,.48.13.34.34,0,0,1,.12.06.27.27,0,0,1,0,.15.81.81,0,0,1,0,.19l-.74,0-.69,0-.76,0-.77,0a1.76,1.76,0,0,1,0-.19.21.21,0,0,1,0-.15s0,0,.08,0a2.09,2.09,0,0,0,.49-.14c.13,0,.19-.12.19-.23a.45.45,0,0,0,0-.17Zm-.19-.48-1.1-2.91-1.15,2.91Z"/><path class="cls-2" d="M122.07,64.61a4.17,4.17,0,0,1,.29-1.54,4.3,4.3,0,0,1,.81-1.27,3.78,3.78,0,0,1,1.19-.86,3.17,3.17,0,0,1,1.42-.32,4.78,4.78,0,0,1,1.8.32,3.56,3.56,0,0,1,1.27.88,3.48,3.48,0,0,1,.75,1.27,4.57,4.57,0,0,1,.25,1.52,4.3,4.3,0,0,1-.31,1.68,3.58,3.58,0,0,1-2.11,2,4.49,4.49,0,0,1-1.56.27,4.06,4.06,0,0,1-1.54-.28,3.44,3.44,0,0,1-1.2-.81,3.53,3.53,0,0,1-.78-1.26A4.52,4.52,0,0,1,122.07,64.61ZM126.14,68a2.42,2.42,0,0,0,1-.21,2.35,2.35,0,0,0,.8-.59,2.64,2.64,0,0,0,.51-.9,3.49,3.49,0,0,0,.19-1.14,6.59,6.59,0,0,0-.18-1.58,4,4,0,0,0-.54-1.27,2.73,2.73,0,0,0-.91-.85,2.67,2.67,0,0,0-1.29-.3,2.48,2.48,0,0,0-.93.18,2.21,2.21,0,0,0-.78.53,2.52,2.52,0,0,0-.54.86,3.28,3.28,0,0,0-.2,1.18,6.43,6.43,0,0,0,.19,1.62,4.11,4.11,0,0,0,.55,1.31,2.8,2.8,0,0,0,.89.86A2.48,2.48,0,0,0,126.14,68Z"/><path class="cls-2" d="M131.91,61.6a.34.34,0,0,0-.18-.33,2.84,2.84,0,0,0-.66-.18A.16.16,0,0,1,131,61a.46.46,0,0,1,0-.14.81.81,0,0,1,0-.19l.76,0,.7,0h2.34a8.26,8.26,0,0,0,.88,0l.57,0c.09,0,.16.06.2.19a2.62,2.62,0,0,1,.09.47c0,.18,0,.38.09.58a1.59,1.59,0,0,0,.16.52.13.13,0,0,1-.09.07l-.12,0a.18.18,0,0,1-.19-.11c-.1-.21-.19-.39-.28-.54a1.27,1.27,0,0,0-.31-.37.94.94,0,0,0-.41-.21,2.38,2.38,0,0,0-.59-.06H133V64.4h1.76a.35.35,0,0,0,.34-.23,2.49,2.49,0,0,0,.16-.56.19.19,0,0,1,.21-.15l.19,0c0,.18,0,.38,0,.6s0,.42,0,.59,0,.3,0,.49,0,.4,0,.65l-.17,0a.35.35,0,0,1-.16,0,.15.15,0,0,1-.07-.12,2.1,2.1,0,0,0-.15-.55.36.36,0,0,0-.35-.24H133v2.75q0,.24.3.33a5,5,0,0,0,.74.15c.09,0,.14.07.14.2a1.91,1.91,0,0,1,0,.2l-.53,0-.56,0h-.65l-.73,0-.74,0a.81.81,0,0,1,0-.19c0-.12,0-.18.12-.19a4.47,4.47,0,0,0,.62-.18.32.32,0,0,0,.22-.33Z"/><path class="cls-2" d="M144,61.25v6.32a.41.41,0,0,0,.23.39,2.61,2.61,0,0,0,.75.17c.09,0,.13.06.13.19a.79.79,0,0,1,0,.2l-.8,0-.85,0-.84,0-.82,0a1.91,1.91,0,0,1,0-.2c0-.11,0-.17.12-.19a3.12,3.12,0,0,0,.77-.18.38.38,0,0,0,.24-.38V61.25h-1.22a2.06,2.06,0,0,0-.6.07,1.19,1.19,0,0,0-.42.21,1.27,1.27,0,0,0-.31.37,5,5,0,0,0-.27.52s0,.07-.08.08a.2.2,0,0,1-.1,0,.37.37,0,0,1-.23-.07q.12-.42.18-.75c0-.23.08-.41.11-.56a1.45,1.45,0,0,1,.1-.33.17.17,0,0,1,.17-.12h.24l.32,0,.35,0h4.61l.36,0,.32,0h.25a.19.19,0,0,1,.17.12,2.64,2.64,0,0,1,.1.35c0,.15.06.34.1.56a6.43,6.43,0,0,0,.18.73l-.11,0a.23.23,0,0,1-.12,0,.22.22,0,0,1-.11,0,.11.11,0,0,1-.08-.08c-.09-.2-.18-.37-.26-.52a1.27,1.27,0,0,0-.31-.37,1.06,1.06,0,0,0-.41-.21,2.06,2.06,0,0,0-.6-.07Z"/><path class="cls-2" d="M149.84,67.63A.34.34,0,0,0,150,68a2.67,2.67,0,0,0,.62.18c.08,0,.12.08.12.19a1.76,1.76,0,0,1,0,.19l-.74,0-.7,0-.7,0-.73,0a.72.72,0,0,1,0-.19c0-.11,0-.17.11-.19a1.86,1.86,0,0,0,.62-.18.35.35,0,0,0,.17-.33v-6a.37.37,0,0,0-.17-.34,2.21,2.21,0,0,0-.62-.17.11.11,0,0,1-.09-.07.27.27,0,0,1,0-.13.72.72,0,0,1,0-.19l.74,0,.69,0,.68,0,.76,0a1.76,1.76,0,0,1,0,.19c0,.12,0,.19-.12.2a2.32,2.32,0,0,0-.62.17.37.37,0,0,0-.16.34Z"/><path class="cls-2" d="M159.13,61a.31.31,0,0,1,.05-.1.15.15,0,0,1,.1-.07l.19,0,.33,0h.58l.37,0,.33,0a.81.81,0,0,1,0,.19c0,.13,0,.19-.12.2a1.35,1.35,0,0,0-.57.16.31.31,0,0,0-.14.27s0,.11,0,.31,0,.54.06,1,.05,1.1.09,1.88.07,1.75.12,2.91a.41.41,0,0,0,.16.33,1.44,1.44,0,0,0,.58.18.11.11,0,0,1,.08.07.21.21,0,0,1,0,.12.72.72,0,0,1,0,.19l-.75,0-.62,0h-.67l-.39,0-.33,0a.72.72,0,0,1,0-.19c0-.13,0-.19.11-.19a2.48,2.48,0,0,0,.65-.19.34.34,0,0,0,.17-.32s0-.17,0-.44,0-.59,0-1,0-.81-.06-1.26,0-.87-.06-1.27,0-.74-.05-1,0-.46,0-.53l-2.59,6.27a.76.76,0,0,1-.09.16.13.13,0,0,1-.11,0h-.11l-2.9-6.66c0,.08,0,.27,0,.58s0,.66,0,1.08,0,.86-.07,1.33,0,.89-.06,1.29,0,.73-.05,1,0,.42,0,.43q0,.38.81.51c.08,0,.12.07.12.19a.81.81,0,0,1,0,.19l-.62,0-.55,0-.51,0-.6,0a.81.81,0,0,1,0-.19c0-.11,0-.17.12-.19a1.76,1.76,0,0,0,.52-.17.44.44,0,0,0,.22-.34c0-.07,0-.27,0-.6s0-.71.05-1.16.05-.93.07-1.44,0-1,.06-1.4,0-.79.05-1.07,0-.42,0-.43a.3.3,0,0,0-.15-.28,1.93,1.93,0,0,0-.56-.16c-.08,0-.12-.07-.12-.2a1.76,1.76,0,0,1,0-.19l.35,0,.39,0h.66l.33,0a.69.69,0,0,1,.19,0,.15.15,0,0,1,.1.07l.06.1,2.53,5.91Z"/><path class="cls-2" d="M164.58,61.25v3h1.85a.34.34,0,0,0,.33-.23,2.44,2.44,0,0,0,.16-.57.2.2,0,0,1,.22-.15h.09l.1,0c0,.17,0,.37,0,.59s0,.41,0,.58,0,.3,0,.49,0,.41.05.66l-.18,0a.21.21,0,0,1-.23-.15,2.35,2.35,0,0,0-.16-.56.34.34,0,0,0-.33-.24h-1.85v2.8c0,.17.1.28.32.33a4.27,4.27,0,0,0,1,.09h.65a1.57,1.57,0,0,0,.6-.11,1.29,1.29,0,0,0,.45-.27,1.76,1.76,0,0,0,.35-.41,6,6,0,0,0,.3-.52s.08-.08.18-.08a.27.27,0,0,1,.12,0,1.25,1.25,0,0,1,.12.08,3,3,0,0,0-.18.53q-.07.31-.15.6a2.59,2.59,0,0,1-.15.49c-.05.13-.11.2-.19.2h-.27l-.39,0-.42,0h-3l-.74,0-.74,0a.81.81,0,0,1,0-.19c0-.11,0-.17.12-.19a2.29,2.29,0,0,0,.65-.18.33.33,0,0,0,.19-.33v-6a.31.31,0,0,0-.17-.32,2.44,2.44,0,0,0-.67-.19c-.08,0-.12-.08-.12-.2s0-.07,0-.1a.29.29,0,0,1,0-.09l.85,0h3a8.38,8.38,0,0,0,.93,0l.52,0c.1,0,.17.06.2.19a2.62,2.62,0,0,1,.09.47c0,.18.05.38.09.58a1.45,1.45,0,0,0,.17.52.31.31,0,0,1-.21.07c-.1,0-.17,0-.2-.1s-.19-.38-.27-.53a1.37,1.37,0,0,0-.31-.36,1.06,1.06,0,0,0-.41-.21,2.06,2.06,0,0,0-.6-.07Z"/></g></g></g></svg>