<?xml version="1.0" encoding="utf-8"?>
<!-- Generator: Adobe Illustrator 24.0.0, SVG Export Plug-In . SVG Version: 6.00 Build 0)  -->
<svg version="1.1" xmlns="http://www.w3.org/2000/svg" xmlns:xlink="http://www.w3.org/1999/xlink" x="0px" y="0px"
	 viewBox="0 0 392 512" style="enable-background:new 0 0 392 512;" xml:space="preserve">
<style type="text/css">
	#Triforce{transform:translate(77px, 70px)}
	#correction{transform:translate(-220px, -95px)}
	#correction2{transform:translate(-200px, -100px)}
	.not-selected{fill:none;stroke:none;}
	.is-selected{stroke:black; stroke-width:3; stroke-miterlimit:10; fill:none;}
	.st0{display:none;}
	.st1{display:inline;}
	.st2{display:inline;clip-path:url(#SVGID_4_);}
	.st3{display:inline;fill:none;stroke:#5DBC63;stroke-width:3;stroke-miterlimit:10;}
	.st4{display:inline;fill:none;stroke:#F7EC32;stroke-width:3;stroke-miterlimit:10;}
	.st5{display:inline;fill:none;stroke:#ACA7AF;stroke-width:3;stroke-miterlimit:10;}
	.st6{display:inline;fill:none;stroke:#F2A1B5;stroke-width:3;stroke-miterlimit:10;}
	.st7{clip-path:url(#SVGID_6_);}
	.st8{display:inline;clip-path:url(#SVGID_8_);}
	.st9{display:inline;fill:none;stroke:#50539A;stroke-width:3;stroke-miterlimit:10;}
	.st10{clip-path:url(#SVGID_10_);}
	.st11{display:inline;clip-path:url(#SVGID_12_);}
	.st12{display:inline;fill:none;stroke:#638CC3;stroke-width:3;stroke-miterlimit:10;}
	.st13{clip-path:url(#SVGID_14_);}
	.st14{display:inline;clip-path:url(#SVGID_16_);}
	.st15{clip-path:url(#SVGID_18_);}
	.st16{display:inline;clip-path:url(#SVGID_20_);}
	.st17{clip-path:url(#SVGID_22_);}
	.st18{display:inline;clip-path:url(#SVGID_24_);}
	.st19{clip-path:url(#SVGID_26_);}
	.st20{display:inline;clip-path:url(#SVGID_28_);}
	.st21{display:inline;clip-path:url(#SVGID_32_);}
	.st22{display:inline;fill:none;stroke:#CD4A3E;stroke-width:3;stroke-miterlimit:10;}
	.st23{clip-path:url(#SVGID_34_);}
	.st24{display:inline;clip-path:url(#SVGID_36_);}
	.st25{clip-path:url(#SVGID_40_);}
	.st26{clip-path:url(#SVGID_44_);}
	.st27{clip-path:url(#SVGID_46_);}
	.st28{clip-path:url(#SVGID_48_);}
	.st29{clip-path:url(#SVGID_52_);}
	.st30{clip-path:url(#SVGID_56_);}
	.st31{clip-path:url(#SVGID_60_);}
	.st32{clip-path:url(#SVGID_62_);}
	.st33{clip-path:url(#SVGID_64_);}
	.st34{clip-path:url(#SVGID_66_);}
	.st35{clip-path:url(#SVGID_68_);}
	.st36{clip-path:url(#SVGID_70_);}
	.st37{clip-path:url(#SVGID_72_);}
	.st64{fill:none;stroke:#638CC3;stroke-width:3;stroke-miterlimit:10;}
	.st65{fill:none;stroke:#ACA7AF;stroke-width:3;stroke-miterlimit:10;}
	.st69{fill:none;stroke:#5DBC63;stroke-width:3;stroke-miterlimit:10;}
	.st70{fill:none;stroke:#F7EC32;stroke-width:3;stroke-miterlimit:10;}
	.cls-1{fill:#f7ec32;}
</style>
<g id="Master_sword">
	<image class="future st0" style="overflow:visible;" width="330" height="448" id="out_x5F_pedestal" xlink:href="Pedestal_of_Time_(Ocarina_of_Time) copy.png"  transform="matrix(0.1496 0 0 0.1496 175 439.9476)">
	</image>
	
	<image class="past" style="overflow:visible;" width="330" height="448" id="in_x5F_pedestal" xlink:href="Pedestal_of_Time_(Ocarina_of_Time).png"  transform="matrix(0.1496 0 0 0.1496 175 439.9476)">
	</image>
</g>
<g id="Triforce">
    <polygon class="cls-1" points="118.71 0 59.35 102.8 178.07 102.8 118.71 0"/>
    <polygon class="cls-1" points="178.07 102.8 118.71 205.6 237.42 205.6 178.07 102.8"/>
    <polygon class="cls-1" points="59.35 102.8 0 205.6 118.7 205.6 59.35 102.8"/>
</g>
<g id="c-Saria">
	<g class="past" id="p-Saria">
		<g id="p-Saria-Sage-image">
			<circle class="not-selected" cx="252.9" cy="49.5" r="25.3"/>
			<defs>
				<circle id="SVGID_1_" cx="252.9" cy="49.5" r="25.3"/>
			</defs>
			<clipPath id="SVGID_2_">
				<use xlink:href="#SVGID_1_"  style="overflow:visible;"/>
			</clipPath>
			<g transform="matrix(1 0 0 1 0 -7.629395e-06)" style="clip-path:url(#SVGID_2_);">
				
					<image style="overflow:visible;" width="190" height="200" xlink:href="ED80E0100AEB4CA.png"  transform="matrix(0.2425 0 0 0.2425 232.3562 26.408)">
				</image>
			</g>
		</g>
		<g id="p-Saria-r-lines" class="st0">
			<path class="st3" d="M244.2,73.3c-12.8,35.1,41.3,183.7,75.4,203.4"/>
			<path class="st3" d="M287.2,99.7c-11.4,10.9-48.7-10.6-42.9-26.3"/>
		</g>
	</g>
	<g class="future st0" id="f-Saria-Sage">
		<g id="f-Saria-Sage-image">
			<circle class="not-selected" cx="252.9" cy="49.5" r="25.3"/>
			<defs>
				<circle id="SVGID_3_" cx="252.9" cy="49.5" r="25.3"/>
			</defs>
			<use xlink:href="#SVGID_3_"  style="display:inline;overflow:visible;fill:#30B55D;"/>
			<clipPath id="SVGID_4_" class="st1">
				<use xlink:href="#SVGID_3_"  style="overflow:visible;"/>
			</clipPath>
			<g id="dfzSrb.tif_1_" class="st2">
				
					<image style="overflow:visible;" width="190" height="200" xlink:href="ED80E0100AEB4CE.png"  transform="matrix(0.2425 0 0 0.2425 232.3562 26.408)">
				</image>
			</g>
		</g>
		<g id="f-Saria-r-lines" class="st0">
			<path class="st4" d="M244.2,73.3c-34,93.3-27.3,189.2-0.6,264.5"/>
			<line class="st4" x1="244.2" y1="73.3" x2="148.1" y2="337.6"/>
			<path class="st4" d="M244.2,73.3c-34,93.3-74.6,163.7-137.9,239.2"/>
			<path class="st4" id="correction2" d="M444.2,173.3C417,248,341.3,337.1,275,375.4"/>
			<path class="st4" d="M244.2,73.3c-19.8,54.5-108.9,121.4-185.4,107.9"/>
			<path class="st4" d="M244.2,73.3c-12.8,35.1-114.4,53.1-136.8,26.4"/>
			<path class="st5" d="M244.2,73.3c-6.8,15.3-48.1,8.3-48.1-7.7"/>
			<path class="st6" d="M244.2,73.3c-12.8,35.1,41.3,183.7,75.4,203.4"/>
			<path class="st3" d="M287.2,99.7c-11.4,10.9-48.7-10.6-42.9-26.3"/>
		</g>
	</g>
</g>
<g id="c-Mido">
	<g class="past" id="p-Mido">
		<g id="p-Mido-image">
			<circle class="not-selected" cx="303.5" cy="80.4" r="25.3"/>
			<defs>
				<circle id="SVGID_5_" cx="303.5" cy="80.4" r="25.3"/>
			</defs>
			<clipPath id="SVGID_6_">
				<use xlink:href="#SVGID_5_"  style="overflow:visible;"/>
			</clipPath>
			<g id="q1QQPC.tif_1_" class="st7">
				
					<image style="overflow:visible;" width="562" height="651" xlink:href="ED80E0100AEB4C9.png"  transform="matrix(7.787785e-02 0 0 7.787785e-02 278.2687 55.0153)">
				</image>
			</g>
		</g>
		<g id="p-Mido-r-lines" class="st0">
			<path class="st6" d="M285.9,98.5c-10.1,12.1-47.4-9.5-41.7-25.2"/>
			<path class="st5" d="M319.7,276.8c-52-30-70.4-134.6-33.8-178.3"/>
		</g>
	</g>
	<g class="future st0" id="f-Mido">
		<g id="f-Mido-image">
			<circle class="not-selected" cx="303.5" cy="80.4" r="25.3"/>
			<defs>
				<circle id="SVGID_7_" cx="303.5" cy="80.4" r="25.3"/>
			</defs>
			<clipPath id="SVGID_8_" class="st1">
				<use xlink:href="#SVGID_7_"  style="overflow:visible;"/>
			</clipPath>
			<g id="q1QQPC.tif" class="st8">
				
					<image style="overflow:visible;" width="562" height="648" xlink:href="ED80E0100AEB4CB.png"  transform="matrix(7.787785e-02 0 0 7.787785e-02 278.2687 55.2489)">
				</image>
			</g>
		</g>
		<g id="f-Mido-r-lines" class="st0">
			<path class="st6" d="M285.9,98.5c-10.1,12.1-47.4-9.5-41.7-25.2"/>
			<path class="st9" d="M319.7,276.8c-52-30-70.4-134.6-33.8-178.3"/>
		</g>
	</g>
</g>
<g id="c-Malon">
	<g class="past" id="p-Malon">
		<g id="p-Malon-image">
			<circle class="not-selected" cx="338.4" cy="123.3" r="25.3"/>
			<defs>
				<circle id="SVGID_9_" cx="338.4" cy="123.3" r="25.3"/>
			</defs>
			<clipPath id="SVGID_10_">
				<use xlink:href="#SVGID_9_"  style="overflow:visible;"/>
			</clipPath>
			<g id="GqMqzw.tif" class="st10">
				
					<image style="overflow:visible;" width="525" height="489" xlink:href="ED80E0100AEB4C8.png"  transform="matrix(9.667312e-02 0 0 9.667312e-02 313.0529 101.4158)">
				</image>
			</g>
		</g>
		<g id="p-Malon-r-lines" class="st0">
			<path class="st12" d="M317.4,137.5c-13.9,6.2,0.7,46.5,16.1,43.8"/>
			<path class="st4" d="M317.4,137.5c-31.9,16.4-19.7,85.9,16.7,92.3"/>
			<path class="st3" d="M317.4,137.5c-49.8,26.7-49.8,109.3,2.2,139.3"/>
			<path class="st3" d="M317.4,137.5c-85.5,47.4-162,60.8-258.7,43.8"/>
		</g>
	</g>
	<g class="future st0" id="f-Malon">
		<g id="f-Malon-image">
			<circle class="not-selected" cx="338.4" cy="123.3" r="25.3"/>
			<defs>
				<circle id="SVGID_11_" cx="338.4" cy="123.3" r="25.3"/>
			</defs>
			<clipPath id="SVGID_12_" class="st1">
				<use xlink:href="#SVGID_11_"  style="overflow:visible;"/>
			</clipPath>
			<g id="vxT454.tif" class="st11">
				
					<image style="overflow:visible;" width="424" height="423" xlink:href="ED80E0100AEB4D6.png"  transform="matrix(0.1197 0 0 0.1197 313.0344 97.9139)">
				</image>
			</g>
		</g>
		<g id="f-Malon-r-lines" class="st0">
			<path class="st12" d="M317.4,137.5c-13.9,6.2,0.7,46.5,16.1,43.8"/>
			<path class="st5" d="M317.4,137.5c-31.9,16.4-19.7,85.9,16.7,92.3"/>
			<path class="st3" d="M317.4,137.5c-49.8,26.7-49.8,109.3,2.2,139.3"/>
			<path class="st3" d="M317.4,137.5c-85.5,47.4-156.6,47.6-242.7-2.1"/>
		</g>
	</g>
</g>
<g id="c-Talon">
	<g class="past" id="p-Talon">
		<g id="p-Talon-image">
			<circle class="not-selected" cx="358.8" cy="176.8" r="25.3"/>
			<defs>
				<circle id="SVGID_13_" cx="358.8" cy="176.8" r="25.3"/>
			</defs>
			<clipPath id="SVGID_14_">
				<use xlink:href="#SVGID_13_"  style="overflow:visible;"/>
			</clipPath>
			<g id="rDoWrp.tif" class="st13">
				<image style="overflow:visible;" width="438" height="379" xlink:href="ED80E0100AEB4D9.png"  transform="matrix(0.1158 0 0 0.1158 333.4379 158.2946)"></image>
			</g>
		</g>
		<g id="p-Talon-r-lines" class="st0">
			<path class="st12" d="M333.9,181.2c-15.8,2.8-30.4-37.5-17.4-45.2"/>
			<path class="st4" d="M333.9,181.2c-15.8,2.8-15.8,45.8,0,48.6"/>
			<path class="st3" d="M333.9,181.2c-34.4,6.1-48.4,75.9-14.2,95.6"/>
		</g>
	</g>
	<g class="future st0" id="f-Talon">
		<g id="f-Talon-image">
			<circle class="not-selected" cx="358.8" cy="176.8" r="25.3"/>
			<defs>
				<circle id="SVGID_15_" cx="358.8" cy="176.8" r="25.3"/>
			</defs>
			<clipPath id="SVGID_16_" class="st1">
				<use xlink:href="#SVGID_15_"  style="overflow:visible;"/>
			</clipPath>
			<g id="rDoWrp.tif_1_" class="st14">
				<image style="overflow:visible;" width="435" height="379" xlink:href="ED80E0100AEB4DA.png"  transform="matrix(0.1158 0 0 0.1158 333.6694 158.2946)"></image>
			</g>
		</g>
		<g id="f-Talon-r-lines" class="st0">
			<path class="st12" d="M333.9,181.2c-15.8,2.8-30.4-37.5-17.4-45.2"/>
			<path class="st5" d="M333.9,181.2c-15.8,2.8-15.8,45.8,0,48.6"/>
			<path class="st3" d="M333.9,181.2c-34.4,6.1-48.4,75.9-14.2,95.6"/>
		</g>
	</g>
</g>
<g id="c-Ingo">
	<g class="past" id="p-Ingo">
		<g id="p-Ingo-image">
			<circle class="not-selected" cx="358.8" cy="234.2" r="25.3"/>
			<defs>
				<circle id="SVGID_17_" cx="358.8" cy="234.2" r="25.3"/>
			</defs>
			<clipPath id="SVGID_18_">
				<use xlink:href="#SVGID_17_"  style="overflow:visible;"/>
			</clipPath>
			<g id="_x30_glqCI.tif" class="st15">
				<image style="overflow:visible;" width="384" height="353" xlink:href="ED80E0100AEB4D8.png"  transform="matrix(0.1221 0 0 0.1221 337.0385 216.4749)"></image>
			</g>
		</g>
		<g id="p-Ingo-r-lines" class="st0">
			<path class="st5" d="M333.9,229.8c-57.1-10.1-66.2-65.6-17.4-93.8"/>
			<path class="st5" d="M333.9,229.8c-15.7-3.2-15.8-45.8-0.4-48.5"/>
			<path class="st9" d="M333.9,229.8c-15.8-2.5-30.5,37.6-14.2,47"/>
			<line class="st9" x1="333.9" y1="229.8" x2="58.8" y2="181.3"/>
		</g>
	</g>
	<g class="future st0" id="f-Ingo">
		<g id="f-Ingo-image">
			<circle class="not-selected" cx="358.8" cy="234.2" r="25.3"/>
			<defs>
				<circle id="SVGID_19_" cx="358.8" cy="234.2" r="25.3"/>
			</defs>
			<clipPath id="SVGID_20_" class="st1">
				<use xlink:href="#SVGID_19_"  style="overflow:visible;"/>
			</clipPath>
			<g id="_x30_glqCI.tif_1_" class="st16">
				<image style="overflow:visible;" width="384" height="352" xlink:href="253A06251940218D.png"  transform="matrix(0.1221 0 0 0.1221 337.0385 216.4749)"></image>
			</g>
		</g>
		<g id="f-Ingo-r-lines" class="st0">
			<path class="st5" d="M333.9,229.8c-57.1-10.1-66.2-65.6-17.4-93.8"/>
			<path class="st5" d="M333.9,229.8c-15.7-3.2-15.8-45.8-0.4-48.5"/>
			<path class="st5" d="M333.9,229.8c-15.8-2.5-30.5,37.6-14.2,47"/>
			<path class="st5" d="M333.9,229.8c-97.1-17.1-173-44.7-259.1-94.4"/>
			<path class="st4" d="M333.9,229.8c-97.1-17.1-137.7-65.6-137.7-164.1"/>
		</g>
	</g>
</g>
<g id="c-Link">
	<g class="past" id="p-Link">
		<g id="p-Link-image">
			<circle class="not-selected" cx="341.1" cy="290.3" r="25.3"/>
			<defs>
				<circle id="SVGID_21_" cx="341.1" cy="290.3" r="25.3"/>
			</defs>
			<clipPath id="SVGID_22_">
				<use xlink:href="#SVGID_21_"  style="overflow:visible;"/>
			</clipPath>
			<g id="KepLNH.tif" class="st17">
				
					<image style="overflow:visible;" width="218" height="195" xlink:href="253A062519402183.png"  transform="matrix(0.2339 0 0 0.2339 315.546 270.0154)">
				</image>
			</g>
		</g>
		<g id="p-Link-r-lines" class="st0">
			<path class="st4" d="M319.7,276.8c-16.2-9.4-43.9,23.6-34.2,36.2"/>
			<path class="st9" d="M319.7,276.8c-16.2-9.4-1.5-49.8,14.2-47"/>
			<path class="st9" d="M319.7,276.8c-34.5-19.8-21.9-89.1,13.8-95.5"/>
			<path class="st3" d="M319.7,276.8c-52-30-52-112.6-3.2-140.8"/>
			<path class="st9" d="M285.9,98.5c-36.7,43.7-54,127.6,33.8,178.3"/>
			<path class="st3" id="correction2" d="M519.7,376.8C431.9,326.1,417,248,444.2,173.3"/>
			<path class="st5" d="M196.2,65.7c0,98.5,35.7,160.5,123.5,211.1"/>
			<path class="st5" d="M319.7,276.8c-87.8-50.7-144.2-128.1-171.1-201.9"/>
			<path class="st5" d="M319.7,276.8c-87.8-50.7-161.8-116.9-212.2-177"/>
			<line class="st9" x1="319.7" y1="276.8" x2="74.4" y2="136"/>
			<path class="st3" d="M319.7,276.8c-34.1-18.6-87.7,25.7-75.4,60.8"/>
			<path class="st9" d="M319.7,276.8c-52.1-29.9-123.5,11.3-123.5,68.5"/>
			<path class="st3" d="M319.7,276.8c-87.8-50.7-151.5,5.5-171.6,60.8"/>
			<path class="st9" d="M319.7,276.8c-87.8-50.7-163.6-23.6-212.7,34.9"/>
			<path class="st3" d="M319.7,276.8c-87.8-50.7-176-41-244.7-1.4"/>
			<path class="st9" d="M319.7,276.8c-87.8-50.7-182.7-60.9-260.5-47.2"/>
			<path class="st3" d="M319.7,276.8c-87.8-50.7-183-81.8-260.9-95.5"/>
		</g>
	</g>
	<g class="future st0" id="f-Link">
		<g id="f-Link-image">
			<circle class="not-selected" cx="341.1" cy="290.3" r="25.3"/>
			<defs>
				<circle id="SVGID_23_" cx="341.1" cy="290.3" r="25.3"/>
			</defs>
			<clipPath id="SVGID_24_" class="st1">
				<use xlink:href="#SVGID_23_"  style="overflow:visible;"/>
			</clipPath>
			<g id="_x35_PkiGk.tif" class="st18">
				
					<image style="overflow:visible;" width="142" height="132" xlink:href="253A062519402185.png"  transform="matrix(0.3602 0 0 0.3602 315.4427 268.2366)">
				</image>
			</g>
		</g>
		<g id="f-Link-r-lines" class="st0">
			<path class="st9" d="M285.9,98.5c-36.7,43.7-54,127.6,33.8,178.3"/>
			<path class="st3" id="correction2" d="M519.7,376.8C431.9,326.1,417,248,444.2,173.3"/>
			<path class="st5" d="M196.2,65.7c0,98.5,35.7,160.5,123.5,211.1"/>

			<path class="st3" d="M319.7,276.8c-16.2-9.4-43.9,23.6-34.2,36.2"/>
			<path class="st5" d="M319.7,276.8c-16.2-9.4-1.5-49.8,14.2-47"/>
			<path class="st9" d="M319.7,276.8c-34.5-19.8-21.9-89.1,13.8-95.5"/>
			<path class="st3" d="M319.7,276.8c-52-30-52-112.6-3.2-140.8"/>

			<path class="st5" d="M319.7,276.8c-87.8-50.7-144.2-128.1-171.1-201.9"/>
			<path class="st4" d="M319.7,276.8c-87.8-50.7-161.8-116.9-212.2-177"/>
			<line class="st3" x1="319.7" y1="276.8" x2="74.4" y2="136"/>
			<path class="st3" d="M319.7,276.8c-34.1-18.6-87.7,25.7-75.4,60.8"/>
			<path class="st9" d="M319.7,276.8c-52.1-29.9-123.5,11.3-123.5,68.5"/>
			<path class="st3" d="M319.7,276.8c-87.8-50.7-151.5,5.5-171.6,60.8"/>
			<path class="st4" d="M319.7,276.8c-87.8-50.7-163.6-23.6-212.7,34.9"/>
			<path class="st3" d="M319.7,276.8c-87.8-50.7-176-41-244.7-1.4"/>
			<path class="st4" d="M319.7,276.8c-87.8-50.7-182.7-60.9-260.5-47.2"/>
			<path class="st4" d="M319.7,276.8c-87.8-50.7-183-81.8-260.9-95.5"/>
		</g>
	</g>
</g>
<g id="c-Navi">
	<g class="past" id="p-Navi">
		<g id="p-Navi-image">
			<circle class="not-selected" cx="302.2" cy="331.9" r="25.3"/>
			<defs>
				<circle id="SVGID_25_" cx="302.2" cy="331.9" r="25.3"/>
			</defs>
			<clipPath id="SVGID_26_">
				<use xlink:href="#SVGID_25_"  style="overflow:visible;"/>
			</clipPath>
			<g id="_x33_7dISE.tif" class="st19">
				
					<image style="overflow:visible;" width="250" height="238" id="Layer_0_9_" xlink:href="253A062519402187.png"  transform="matrix(0.1242 0 0 0.1242 288.7385 317.7047)">
				</image>
			</g>
		</g>
		<g id="p-Navi-r-lines" class="st0">
			<path class="st4" d="M285.5,312.9c-9.8-12.6,17.9-45.5,34.5-36.7"/>
		</g>
	</g>
	<g class="future st0" id="f-Navi">
		<g id="f-Navi-image">
			<circle class="not-selected" cx="302.2" cy="331.9" r="25.3"/>
			<defs>
				<circle id="SVGID_27_" cx="302.2" cy="331.9" r="25.3"/>
			</defs>
			<clipPath id="SVGID_28_" class="st1">
				<use xlink:href="#SVGID_27_"  style="overflow:visible;"/>
			</clipPath>
			<g id="_x33_7dISE.tif_1_" class="st20">
				
					<image style="overflow:visible;" width="250" height="238" id="Layer_0_32_" xlink:href="253A062519402184.png"  transform="matrix(0.1242 0 0 0.1242 288.7385 317.7047)">
				</image>
			</g>
		</g>
		<g id="f-Navi-r-lines" class="st0">
			<path class="st3" d="M285.5,312.9c-9.8-12.6,17.9-45.5,34.5-36.7"/>
		</g>
	</g>
</g>
<g id="c-Ruto">
	<g class="past" id="p-Ruto">
		<g id="p-Ruto-image">
			<circle class="not-selected" cx="252.9" cy="361.4" r="25.3"/>
			<defs>
				<circle id="SVGID_29_" cx="252.9" cy="361.4" r="25.3"/>
			</defs>
			<clipPath id="SVGID_30_">
				<use xlink:href="#SVGID_29_"  style="overflow:visible;"/>
			</clipPath>
			<g transform="matrix(1 0 0 1 0 0)" style="clip-path:url(#SVGID_30_);">
				<image style="overflow:visible;" width="116" height="105" xlink:href="253A06251940219C.png"  transform="matrix(0.4397 0 0 0.4397 227.435 340.7698)"></image>
			</g>
		</g>
		<g id="p-Ruto-r-lines" class="st0">
			<path class="st22" d="M244.2,337.6c-12.8-35.1,41.3-80.5,75.4-60.8"/>
			<path class="st12" d="M244.2,337.6c-5.7-15.7-48.1-8.3-48.1,7.7"/>
		</g>
	</g>
	<g class="future st0" id="f-Ruto-Sage">
		<g id="f-Ruto-Sage-image">
			<circle class="not-selected" cx="252.9" cy="361.4" r="25.3"/>
			<defs>
				<circle id="SVGID_31_" cx="252.9" cy="361.4" r="25.3"/>
			</defs>
			<use xlink:href="#SVGID_31_"  style="display:inline;overflow:visible;fill:#4A78BC;"/>
			<clipPath id="SVGID_32_" class="st1">
				<use xlink:href="#SVGID_31_"  style="overflow:visible;"/>
			</clipPath>
			<g id="s6PqOh.tif" class="st21">
				
					<image style="overflow:visible;" width="81" height="74" xlink:href="253A06251940219D.png"  transform="matrix(0.6296 0 0 0.6296 227.1884 340.5327)">
				</image>
			</g>
		</g>
		<g id="f-Ruto-r-lines" class="st0">
			<path class="st22" d="M244.2,337.6c-12.8-35.1,41.3-80.5,75.4-60.8"/>
			<path class="st12" d="M244.2,337.6c-5.7-15.7-48.1-8.3-48.1,7.7"/>
			<path class="st4" d="M244.2,337.6c-12.7-35-82.5-37.6-96.2,0"/>
			<path class="st4" d="M244.2,337.6c-19.8-54.5-112.3-55.6-137.9-25.1"/>
			<path class="st4" id="correction" d="M464.2,429.6C437.8,357,344.6,338.8,295,367.4"/>
			<path class="st4" d="M244.2,337.6c-34-93.3-108.1-121.5-185.8-107.8"/>
			<path class="st4" d="M244.2,337.6c-34-93.3-74.6-163.7-136.8-237.8"/>
			<path class="st4" d="M244.2,337.6c-27.3-75.1-27.2-189.6,0-264.3"/>
			<path class="st5" d="M244.2,337.6c-34-93.3-48.1-173.4-48.1-272"/>
			<path class="st4" d="M58.8,181.3c96.7,17.1,151.5,63,185.4,156.3"/>
		</g>
	</g>
</g>
<g id="c-King-Zora">
	<g class="past" id="p-King-Zora">
		<g id="p-Zora-image">
			<circle class="not-selected" cx="196.1" cy="370.6" r="25.3"/>
			<defs>
				<circle id="SVGID_33_" cx="196.1" cy="370.6" r="25.3"/>
			</defs>
			<clipPath id="SVGID_34_">
				<use xlink:href="#SVGID_33_"  style="overflow:visible;"/>
			</clipPath>
			<g id="MnFAS3.tif_1_" class="st23">
				
					<image style="overflow:visible;" width="511" height="511" xlink:href="253A06251940219F.png"  transform="matrix(9.932784e-02 0 0 9.932784e-02 170.766 345.229)">
				</image>
			</g>
		</g>
		<g id="p-Zora-r-lines" class="st0">
			<path class="st12" d="M196.1,345.3c0-16,41.3-22.9,48.1-7.7"/>
			<path class="st9" d="M196.1,345.3c0-36.6,89.4-88.2,123.5-68.5"/>
		</g>
	</g>
	<g class="future st0" id="f-King-Zora">
		<g id="f-Zora-image">
			<circle class="not-selected" cx="196.1" cy="370.6" r="25.3"/>
			<defs>
				<circle id="SVGID_35_" cx="196.1" cy="370.6" r="25.3"/>
			</defs>
			<clipPath id="SVGID_36_" class="st1">
				<use xlink:href="#SVGID_35_"  style="overflow:visible;"/>
			</clipPath>
			<g id="MnFAS3.tif" class="st24">
				
					<image style="overflow:visible;" width="511" height="511" xlink:href="253A06251940219B.png"  transform="matrix(9.932784e-02 0 0 9.932784e-02 170.766 345.229)">
				</image>
			</g>
		</g>
		<g id="f-Zora-r-lines" class="st0">
			<path class="st12" d="M196.1,345.3c0-16,41.3-22.9,48.1-7.7"/>
			<path class="st9" d="M196.1,345.3c0-36.6,89.4-88.2,123.5-68.5"/>
		</g>
	</g>
</g>
<g id="c-Darunia">
	<g class="past" id="p-Darunia">
		<g id="p-Darunia-image">
			<circle class="not-selected" cx="139.4" cy="361.4" r="25.3"/>
			<defs>
				<circle id="SVGID_37_" cx="139.4" cy="361.4" r="25.3"/>
			</defs>
			<clipPath id="SVGID_38_">
				<use xlink:href="#SVGID_37_"  style="overflow:visible;"/>
			</clipPath>
			<g transform="matrix(1 0 0 1 0 0)" style="clip-path:url(#SVGID_38_);">
				
					<image style="overflow:visible;" width="113" height="112" xlink:href="253A062519402186.png"  transform="matrix(0.4556 0 0 0.4556 113.6671 335.7253)">
				</image>
			</g>
		</g>
		<g id="p-Darunia-r-lines" class="st0">
			<path class="st12" d="M148.1,337.6c27-74.1,101.8-101.1,171.6-60.8"/>
			<path class="st5" d="M148.1,337.6c34-93.3,48.1-193.4,48.1-272"/>
		</g>
	</g>
	<g class="future st0" id="f-Darunia-Sage">
		<g id="f-Darunia-Sage-image" class="st1">
			<circle class="not-selected" cx="139.4" cy="361.4" r="25.3"/>
			<defs>
				<circle id="SVGID_39_" cx="139.4" cy="361.4" r="25.3"/>
			</defs>
			<use xlink:href="#SVGID_39_"  style="overflow:visible;fill:#D81F27;"/>
			<clipPath id="SVGID_40_">
				<use xlink:href="#SVGID_39_"  style="overflow:visible;"/>
			</clipPath>
			<g id="ROOxpW.tif_1_" class="st25">
				
					<image style="overflow:visible;" width="113" height="112" xlink:href="253A0625194021B8.png"  transform="matrix(0.4556 0 0 0.4556 113.6671 335.7253)">
				</image>
			</g>
		</g>
		<g id="f-Darunia-r-lines" class="st0">
			<path class="st12" d="M148.1,337.6c27-74.1,101.8-101.1,171.6-60.8"/>
			<path class="st4" d="M148.1,337.6c12.8-35.1,83.4-35.1,96.2,0"/>
			<path class="st4" d="M148.1,337.6c5.7-16-31.6-37.2-41.7-25.1"/>
			<path class="st4" d="M148.1,337.6c12-35.1-40.4-80.5-73-62.2"/>
			<path class="st4" d="M148.1,337.6c27.4-75.3-11.8-142.7-90.3-156.5"/>
			<path class="st4" d="M148.1,337.6c34-93.3,21.6-163.7-40.6-237.8"/>
			<line class="st4" x1="148.1" y1="337.6" x2="244.2" y2="73.3"/>
			<path class="st5" d="M148.1,337.6c34-93.3,48.1-193.4,48.1-272"/>
		</g>
	</g>
</g>
<g id="c-Rauru">
	<g class="past" id="p-Rauru">
		<g id="p-Rauru-image">
			<circle class="not-selected" cx="90" cy="331.9" r="25.3"/>
			<defs>
				<circle id="SVGID_41_" cx="90" cy="331.9" r="25.3"/>
			</defs>
			<clipPath id="SVGID_42_">
				<use xlink:href="#SVGID_41_"  style="overflow:visible;"/>
			</clipPath>
			<g transform="matrix(1 0 0 1 0 0)" style="clip-path:url(#SVGID_42_);">
				
					<image style="overflow:visible;" width="975" height="905" xlink:href="253A0625194021BB.png"  transform="matrix(5.199975e-02 0 0 5.199975e-02 64.6964 310.2143)">
				</image>
			</g>
		</g>
		<g id="p-Rauru-r-lines" class="st0">
			<path class="st4" d="M107,313.1c50.4-61.5,143-76.5,212.7-36.3"/>
			<path class="st5" d="M107,313.1c49.8-60.7,89.2-168.9,89.2-247.5"/>
		</g>
	</g>
	<g class="future st0" id="f-Rauru">
		<g id="f-Rauru-Sage-image" class="st1">
			<circle class="not-selected" cx="90" cy="331.9" r="25.3"/>
			<defs>
				<circle id="SVGID_43_" cx="90" cy="331.9" r="25.3"/>
			</defs>
			<use xlink:href="#SVGID_43_"  style="overflow:visible;fill:#EFDE0F;"/>
			<clipPath id="SVGID_44_">
				<use xlink:href="#SVGID_43_"  style="overflow:visible;"/>
			</clipPath>
			<g id="RmPrmH.tif" class="st26">
				
					<image style="overflow:visible;" width="139" height="112" xlink:href="253A0625194021B9.png"  transform="matrix(0.3665 0 0 0.3665 64.8053 316.416)">
				</image>
			</g>
		</g>
		<g id="f-Rauru-r-lines" class="st0">
			<path class="st4" d="M107,313.1c50.4-61.5,143-76.5,212.7-36.3"/>
			<path class="st4" d="M107,313.1c9.8-12.8-18.1-45.7-32-37.7"/>
			<path class="st4" d="M107,313.1c35-45.1,115.5-29.4,137.3,24.5"/>
			<path class="st4" d="M107,313.1c9.2-11.9,46.8,8.8,41.1,24.5"/>
			<path class="st4" d="M107,313.1c22.8-28.6-12.5-125.6-48.2-131.9"/>
			<path class="st4" d="M107,313.1c48.1-58.7,50.1-154.2,0-213"/>
			<path class="st4" d="M107,313.1c62.6-76,103.3-146.4,137.3-239.8"/>
			<path class="st5" d="M107,313.1c49.8-60.7,89.2-168.9,89.2-247.5"/>
		</g>
	</g>
</g>
<g id="c-Zelda">
	<g class="past" id="p-Zelda">
		<g id="p-Zelda-image">
			<circle class="not-selected" cx="52.8" cy="287.6" r="25.3"/>
			<defs>
				<circle id="SVGID_45_" cx="52.8" cy="287.6" r="25.3"/>
			</defs>
			<clipPath id="SVGID_46_">
				<use xlink:href="#SVGID_45_" style="overflow:visible;"/>
			</clipPath>
			<g id="sOyHG3.tif" class="st27">
				<image style="overflow:visible;" width="188" height="192" xlink:href="253A0625194021B7.png"  transform="matrix(0.2343 0 0 0.2343 34.1698 268.0155)">
				</image>
			</g>
		</g>
		<g id="p-Zelda-r-lines" class="st0">
			<path class="st5" d="M75,275.4c49.6-28.7,121.1-152.5,121.1-209.8"/>
			<path class="st3" d="M75,275.4c69-39.8,174.5-39.2,244.7,1.4"/>
			<path class="st3" d="M75,275.4c14.2-8.8-0.9-48.4-16.6-45.7"/>
		</g>
	</g>
		<g class="future st0" id="f-Sheik">
		<g id="f-Sheik-image">
			<circle class="not-selected" cx="33.5" cy="234.7" r="25.3"/>
			<defs>
				<circle id="SVGID_49_" cx="33.5" cy="234.7" r="25.3"/>
			</defs>
			<clipPath id="SVGID_50_">
				<use xlink:href="#SVGID_49_"  style="overflow:visible;"/>
			</clipPath>
			<g id="JfHceO.tif" class="st29">
				
					<image style="overflow:visible;" width="138" height="129" xlink:href="EBBBF0201242CBC7.png"  transform="matrix(0.3715 0 0 0.3715 7.8876 212.1317)">
				</image>
			</g>
		</g>
		<g id="f-Sheik-r-lines" class="st0">
			<path class="st69" d="M58.4,229.8c15.8-2.8,15.8-45.8,0-48.6"/>
			<path class="st64" d="M58.4,229.8c15.8-2.8,30.5,37.6,16.1,45.9"/>
			<path class="st70" d="M58.4,229.8c97.1-17.1,173.5-3.6,261.6,46.5"/>
			<path class="st70" d="M58.4,229.8c56.4-9.9,165.8,53.4,185.8,107.8"/>
			<path class="st65" d="M58.4,229.8c56.4-9.9,137.7-106.9,137.8-164.1"/>
		</g>
	</g>
	<g class="future st0" id="f-Zelda">
		<g id="f-Zelda-image" class="st1">
			<circle class="not-selected" cx="52.8" cy="288.8" r="25.3"/>
			<defs>
				<circle id="SVGID_47_" cx="52.8" cy="288.8" r="25.3"/>
			</defs>
			<clipPath id="SVGID_48_">
				<use xlink:href="#SVGID_47_"  style="overflow:visible;"/>
			</clipPath>
			<g id="cqpDtu.tif" class="st28">
				
					<image style="overflow:visible;" width="137" height="125" xlink:href="253A0625194021A8.png"  transform="matrix(0.3714 0 0 0.3714 27.1573 266.841)">
				</image>
			</g>
		</g>
		<g id="f-Zelda-r-lines" class="st0">
			<path class="st4" d="M75,275.4c49.6-28.6,68.1-133.2,32.4-175.7"/>
			<path class="st4" d="M75,275.4c68.9-39.8,142-127.4,169.2-202.1"/>
			<path class="st4" d="M75,275.4c49.6-28.7,149.4,7.7,169.2,62.2"/>
			<path class="st4" d="M75,275.4c32-18.5,85.8,27.1,71.7,61.8"/>
			<path class="st4" d="M75,275.4c14-8.4,41.5,24.9,31.3,37.1"/>
			<path class="st5" d="M75,275.4c49.6-28.7,121.1-152.5,121.1-209.8"/>
			<path class="st3" d="M75,275.4c69-39.8,174.5-39.2,244.7,1.4"/>
			<path class="st3" d="M75,275.4c33.5-19.4,19.7-87.8-16.2-94.2"/>
			<path class="st12" d="M75,275.4c13.9-8-0.9-48.4-16.6-45.7"/>
		</g>
	</g>
</g>
<g id="c-Impa">
	<g class="past" id="p-Impa">
		<g id="p-Impa-image">
			<circle class="not-selected" cx="33.5" cy="234.2" r="25.3"/>
			<defs>
				<circle id="SVGID_51_" cx="33.5" cy="234.2" r="25.3"/>
			</defs>
			<clipPath id="SVGID_52_">
				<use xlink:href="#SVGID_51_"  style="overflow:visible;"/>
			</clipPath>
			<g style="clip-path:url(#SVGID_52_);">
				
					<image style="overflow:visible;" width="129" height="116" xlink:href="253A0625194021AB.png"  transform="matrix(0.3978 0 0 0.3978 7.8533 213.5099)">
				</image>
			</g>
		</g>
		<g id="p-Impa-r-lines" class="st0">
			<path class="st3" d="M58.4,229.8c15.8-2.8,30.5,37.6,16.6,45.7"/>
			<path class="st9" d="M58.4,229.8c57-10,209.3,17,261.3,47"/>
			<path class="st5" d="M58.4,229.8c55.2-9.7,137.7-106.9,137.8-164.1"/>
		</g>
	</g>
	<g class="future st0" id="f-Impa"  >
		<g id="f-Impa-Sage-image" class="st1">
			<circle class="not-selected" cx="33.5" cy="176.8" r="25.3"/>
			<defs>
				<circle id="SVGID_53_" cx="33.5" cy="176.8" r="25.3"/>
			</defs>
			<use xlink:href="#SVGID_53_"  style="overflow:visible;fill:#7F4C9E;"/>
			<clipPath id="SVGID_54_">
				<use xlink:href="#SVGID_53_"  style="overflow:visible;"/>
			</clipPath>
			<g id="JRVcaO.tif_1_" class="st30">
				
					<image style="overflow:visible;" width="129" height="116" xlink:href="253A0625194021A9.png"  transform="matrix(0.3978 0 0 0.3978 7.8533 156.2307)">
				</image>
			</g>
		</g>
		<g id="f-Impa-r-lines" class="st0">
			<path class="st4" d="M58.4,181.4c97.1,16.9,191,54.8,261.3,95.4"/>
			<path class="st5" d="M58.4,181.4c55.2,9.7,137.8-79.1,137.8-115.7"/>
			<path class="st4" d="M58.4,181.4c81,14.1,158.7-33.3,185.9-108"/>
			<path class="st4" d="M58.4,181.4c75.8,13.2,159.4,83.6,185.9,156.2"/>
			<path class="st4" d="M58.4,181.4c56.4,9,116.1,83.6,89.7,156.2"/>
			<path class="st4" d="M58.4,181.4c36.1,6.3,84.7,87.4,47.9,131.2"/>
			<path class="st4" d="M58.4,181.4c36.1,6.3,71.5-55,49.1-81.6"/>
			<path class="st3" d="M58.4,181.4c36.1,6.2,48.6,75.6,16.1,94.3"/>
			<path class="st3" d="M58.4,181.4c15.8,2.4,15.8,45.6,0,48.2"/>
		</g>
	</g>
</g>
<g id="c-Epona">
	<g class="past" id="p-Epona">
		<g id="p-Epona-image">
			<circle class="not-selected" cx="33.5" cy="176.8" r="25.3"/>
			<defs>
				<circle id="SVGID_55_" cx="33.5" cy="176.8" r="25.3"/>
			</defs>
			<clipPath id="SVGID_56_">
				<use xlink:href="#SVGID_55_"  style="overflow:visible;"/>
			</clipPath>
			<g transform="matrix(1 0 0 1 1.525879e-05 0)" style="clip-path:url(#SVGID_56_);">
				
					<image style="overflow:visible;" width="453" height="536" xlink:href="253A0625194021AF.png"  transform="matrix(9.390661e-02 0 0 9.390661e-02 16.2902 151.7985)">
				</image>
			</g>
		</g>
		<g id="p-Epona-r-lines" class="st0">
			<path class="st3" d="M58.8,181.3c76.9,13.6,190.7-6.6,257.7-45.3"/>
			<path class="st3" d="M58.8,181.3c96.7,17.1,173.1,44.9,260.9,95.5"/>
			<line class="st9" x1="58.8" y1="181.3" x2="333.5" y2="229.7"/>
			<path class="st9" d="M333.9,181.3c-97.1,17.1-178.4,17.1-275.1,0"/>
		</g>
	</g>
	<g class="future st0" id="f-Epona"  >
		<g id="f-Epona-image" class="st1">
			<circle class="not-selected" cx="52.8" cy="122.7" r="25.3"/>
			<defs>
				<circle id="SVGID_57_" cx="52.8" cy="122.7" r="25.3"/>
			</defs>
			<clipPath id="SVGID_58_">
				<use xlink:href="#SVGID_57_"  style="overflow:visible;"/>
			</clipPath>
			<g id="nvWKho.tif" class="st31">
				
					<image style="overflow:visible;" width="376" height="415" xlink:href="253A0625194021AA.png"  transform="matrix(0.1224 0 0 0.1224 32.2171 97.3295)">
				</image>
			</g>
		</g>
		<g id="f-Epona-r-lines" class="st0">
			<path class="st3" d="M74.8,135.4c67.7,38.9,175.5,38.8,241.8,0.6"/>
			<path class="st3" d="M74.8,135.4c86.1,49.7,157.1,90.7,244.9,141.4"/>
			<path class="st5" d="M74.8,135.4c86.1,49.7,162,77.3,259.1,94.4"/>
			<path class="st9" d="M333.9,181.2c-76.5,13.5-174,3.1-259.1-45.8"/>
		</g>
	</g>
</g>
<g id="c-Nabooru">
	<g class="past" id="p-Nabooru">
		<g id="p-Nabooru-image">
			<circle class="not-selected" cx="52.8" cy="122.7" r="25.3"/>
			<defs>
				<circle id="SVGID_59_" cx="52.8" cy="122.7" r="25.3"/>
			</defs>
			<clipPath id="SVGID_60_">
				<use xlink:href="#SVGID_59_"  style="overflow:visible;"/>
			</clipPath>
			<g style="clip-path:url(#SVGID_60_);">
				
					<image style="overflow:visible;" width="114" height="114" xlink:href="253A062519402195.png"  transform="matrix(0.4475 0 0 0.4475 27.2489 97.3166)">
				</image>
			</g>
		</g>
		<g id="p-Nabooru-r-lines" class="st0">
			<path class="st5" d="M74.7,135.4c14.1,8.1,41.8-24.8,32.7-35.6"/>
			<path class="st5" d="M74.7,135.4c32.2,18.5,86.1-26.9,73.9-60.5"/>
			<path class="st5" d="M74.7,135.4c49.9,28.8,121.4-12.5,121.4-69.7"/>
			<line class="st9" x1="74.7" y1="135.4" x2="319.7" y2="276.8"/>
		</g>
	</g>
	<g class="future st0" id="f-Nabooru"  >
		<g id="f-Nabooru-Sage-image" class="st1">
			<circle class="not-selected" cx="91.2" cy="80.4" r="25.3"/>
			<defs>
				<circle id="SVGID_61_" cx="91.2" cy="80.4" r="25.3"/>
			</defs>
			<use xlink:href="#SVGID_61_"  style="overflow:visible;fill:#F8971D;"/>
			<clipPath id="SVGID_62_">
				<use xlink:href="#SVGID_61_"  style="overflow:visible;"/>
			</clipPath>
			<g id="lGV4e9.tif_1_" class="st32">
				
					<image style="overflow:visible;" width="114" height="114" xlink:href="253A0625194021CF.png"  transform="matrix(0.4475 0 0 0.4475 65.735 54.8028)">
				</image>
			</g>
		</g>
		<g id="f-Nabooru-r-lines" class="st0">
			<path class="st5" d="M107.4,99.8c10.5,12.5,45.6-12.6,40.8-25.9"/>
			<path class="st5" d="M107.4,99.8c24,28.4,88.7,1.7,88.7-34.1"/>
			<path class="st4" d="M107.4,99.8c37,44.1,117.2,27.4,136.8-26.4"/>
			<path class="st6" d="M107.4,99.8c62.2,74.1,124.5,126.4,212.2,177"/>
			<path class="st4" d="M285.5,99.1"/>
			<path class="st4" d="M107.4,99.8"/>
			<path class="st4" d="M107.4,99.8c23.9,28.5-1.3,157.7-32.9,176"/>
			<path class="st4" d="M107.4,99.8c37,44.1,36.6,167.8-0.7,212.2"/>
			<path class="st4" d="M107.4,99.8c63.9,76.2,67.1,165.2,40.6,237.8"/>
			<path class="st4" d="M107.4,99.8c9.4,13.4-33.3,84.1-49,81.4"/>
			<path class="st4" d="M107.4,99.8c62.2,74.1,102.8,144.5,136.8,237.8"/>
		</g>
	</g>
</g>
<g id="c-Twinrova">
	<g class="past" id="p-Kotake">
		<g id="p-Kotake-image">
			<circle class="not-selected" cx="91.2" cy="80.4" r="25.3"/>
			<defs>
				<circle id="SVGID_63_" cx="91.2" cy="80.4" r="25.3"/>
			</defs>
			<clipPath id="SVGID_64_">
				<use xlink:href="#SVGID_63_"  style="overflow:visible;"/>
			</clipPath>
			<g id="AHmmNE.tif" class="st33">
				
					<image style="overflow:visible;" width="498" height="498" xlink:href="253A0625194021CD.png"  transform="matrix(0.1018 0 0 0.1018 65.7937 55.0006)">
				</image>
			</g>
		</g>
		<g id="p-Kotake-r-lines" class="st0">
			<path class="st12" d="M107.4,99.8c9.5,11.4,46.3-10.7,40.8-25.9"/>
			<path class="st12" d="M107.4,99.8c23.7,27.2,88.7,2.5,88.7-34.1"/>
			<path class="st5" d="M107.4,99.8c62.2,74.1,124.5,126.4,212.2,177"/>
			<path class="st5" d="M107.4,99.8c9.9,11.7-18.6,43.8-32.7,35.6"/>
		</g>
	</g>
	<g class="past" id="p-Koume">
		<g id="p-Koume-image">
			<circle class="not-selected" cx="141.3" cy="49.5" r="25.3"/>
			<defs>
				<circle id="SVGID_65_" cx="141.3" cy="49.5" r="25.3"/>
			</defs>
			<clipPath id="SVGID_66_">
				<use xlink:href="#SVGID_65_"  style="overflow:visible;"/>
			</clipPath>
			<g id="AHmmNE.tif_1_" class="st34">
				
					<image style="overflow:visible;" width="499" height="499" xlink:href="253A0625194021F3.png"  transform="matrix(0.1018 0 0 0.1018 115.8876 24.1501)">
				</image>
			</g>
		</g>
		<g id="p-Koume-r-lines" class="st0">
			<path class="st12" d="M148.2,73.9c6.6,14.8,47.9,7.7,47.9-8.2"/>
			<path class="st12" d="M148.2,73.9c5.8,15.1-31.8,36.6-40.8,25.9"/>
			<path class="st5" d="M148.2,73.9c12.2,33.4-41.5,80-73.5,61.5"/>
			<path class="st5" d="M148.2,73.9c33.8,92.8,83.6,152.2,171.4,202.9"/>
		</g>
	</g>
	<g class="future st0" id="f-Twinrova">
		<g id="f-Twinrova-image">
			<circle class="not-selected" cx="141.3" cy="50.1" r="25.3"/>
			<defs>
				<circle id="SVGID_67_" cx="141.3" cy="50.1" r="25.3"/>
			</defs>
			<clipPath id="SVGID_68_">
				<use xlink:href="#SVGID_67_"  style="overflow:visible;"/>
			</clipPath>
			<g id="s4Nqy4.tif" class="st35">
				
					<image style="overflow:visible;" width="220" height="221" xlink:href="EBBBF0201242CC23.png"  transform="matrix(0.2312 0 0 0.2312 115.8527 24.5446)">
				</image>
			</g>
		</g>
		<g id="f-Twinrova-r-lines" class="st0">
			<path class="st12" d="M148.3,74.4c6.6,14.8,47.9,7.7,47.9-8.2"/>
			<path class="st12" d="M148.3,74.4c5.8,15.1-31.8,36.6-40.8,25.9"/>
			<path class="st5" d="M148.3,74.4c12.2,33.4-41.5,80-73.5,61.5"/>
			<path class="st5" d="M148.3,74.4c33.8,92.8,83.6,152.2,171.4,202.9"/>
		</g>
	</g>
</g>
<g id="c-Ganon">
	<g class="past" id="p-Ganon">
		<g id="p-Ganon-image">
			<circle class="not-selected" cx="196.2" cy="40.3" r="25.3"/>
			<defs>
				<circle id="SVGID_69_" cx="196.2" cy="40.3" r="25.3"/>
			</defs>
			<clipPath id="SVGID_70_">
				<use xlink:href="#SVGID_69_"  style="overflow:visible;"/>
			</clipPath>
			<g id="TcoytE.tif" class="st36">
				
					<image style="overflow:visible;" width="115" height="111" xlink:href="253A0625194021F5.png"  transform="matrix(0.4422 0 0 0.4422 170.7532 16.5951)">
				</image>
			</g>
		</g>
		<g id="p-Ganon-r-lines" class="st0">
			<path class="st12" d="M196.2,65.7c0,16-42.4,23.4-47.9,8.2"/>
			<path class="st12" d="M196.2,65.7c0,37.6-66.4,60.8-88.7,34.1"/>
			<path class="st5" d="M196.2,65.7c0,57.3-71.5,98.5-121.4,69.7"/>
			<path class="st5" d="M196.2,65.7c0,98.5-35.8,160.5-121.1,209.8"/>
			<path class="st5" d="M196.2,65.7c0,78.9-60.6,150.5-137.8,164.1"/>
			<path class="st5" d="M196.2,65.7c0,79.1,54.3,171.2,123.5,211.1"/>
		</g>
	</g>
	<g class="future st0" id="f-Ganon">
		<g id="f-Ganon-image" class="st1">
			<circle class="not-selected" cx="196.2" cy="40.3" r="25.3"/>
			<defs>
				<circle id="SVGID_71_" cx="196.2" cy="40.3" r="25.3"/>
			</defs>
			<clipPath id="SVGID_72_">
				<use xlink:href="#SVGID_71_"  style="overflow:visible;"/>
			</clipPath>
			<g id="VsKpzG.tif" class="st37">
				
					<image style="overflow:visible;" width="204" height="185" xlink:href="253A0625194021F7.png"  transform="matrix(0.248 0 0 0.248 170.8831 19.854)">
				</image>
			</g>
		</g>
		<g id="f-Ganon-r-lines" class="st0">
			<path class="st12" d="M196.2,65.7c0,16-42.4,23.4-47.9,8.2"/>
			<path class="st5" d="M196.2,65.7c0,37.6-66.4,60.8-88.7,34.1"/>
			<path class="st5" d="M196.2,65.7c0,57.3-82.1,125.4-137.4,115.6"/>
			<path class="st5" d="M196.2,65.7c0,98.5-35.8,160.5-121.1,209.8"/>
			<path class="st5" d="M196.2,65.7c0,78.9-60.6,150.5-137.8,164.1"/>
			<path class="st5" d="M196.2,65.7c0,79.1,54.3,171.2,123.5,211.1"/>
			<path class="st9" d="M196.2,65.7c0,36.6,101.6,157.7,137.7,164.1"/>
		</g>
	</g>
</g>

</svg>
